<svg xmlns="http://www.w3.org/2000/svg" xmlns:xlink="http://www.w3.org/1999/xlink" width="512" zoomAndPan="magnify" viewBox="0 0 384 383.999986" height="512" preserveAspectRatio="xMidYMid meet" version="1.0"><defs><clipPath id="a0411aa2b6"><path d="M 289 123 L 374.964844 123 L 374.964844 187 L 289 187 Z M 289 123 " clip-rule="nonzero"/></clipPath><clipPath id="97b9ef1f11"><path d="M 146 157 L 278 157 L 278 329.222656 L 146 329.222656 Z M 146 157 " clip-rule="nonzero"/></clipPath><clipPath id="ae74fcc4e8"><path d="M 191 54.722656 L 204 54.722656 L 204 67 L 191 67 Z M 191 54.722656 " clip-rule="nonzero"/></clipPath></defs><path fill="#ffffff" d="M 77.421875 123.277344 C 73.136719 128.132812 67.710938 131.5625 61.710938 133.5625 L 68.851562 133.5625 C 76.851562 133.5625 83.421875 140.128906 83.421875 148.128906 L 83.421875 172.40625 C 83.421875 173.550781 82.277344 174.691406 80.851562 174.691406 L 23.148438 174.691406 C 21.722656 174.691406 20.578125 173.550781 20.578125 172.40625 L 20.578125 148.128906 C 20.578125 140.128906 27.148438 133.5625 35.148438 133.5625 L 42.289062 133.5625 C 36.289062 131.5625 30.863281 128.132812 26.578125 123.277344 C 16.582031 126.992188 9.152344 136.703125 9.152344 148.128906 L 9.152344 172.40625 C 9.152344 179.835938 15.4375 186.117188 23.148438 186.117188 L 80.851562 186.117188 C 88.5625 186.117188 94.847656 179.835938 94.847656 172.121094 L 94.847656 147.84375 C 94.847656 136.703125 87.421875 126.992188 77.421875 123.277344 Z M 77.421875 123.277344 " fill-opacity="1" fill-rule="nonzero"/><path fill="#ffffff" d="M 52 123.847656 C 64.570312 123.847656 74.851562 113.566406 74.851562 100.996094 C 74.851562 88.429688 64.570312 78.144531 52 78.144531 C 39.433594 78.144531 29.148438 88.429688 29.148438 100.996094 C 29.148438 113.566406 39.433594 123.847656 52 123.847656 Z M 52 89.570312 C 58.285156 89.570312 63.425781 94.714844 63.425781 100.996094 C 63.425781 107.28125 58.285156 112.421875 52 112.421875 C 45.714844 112.421875 40.574219 107.28125 40.574219 100.996094 C 40.574219 94.714844 45.714844 89.570312 52 89.570312 Z M 52 89.570312 " fill-opacity="1" fill-rule="nonzero"/><g clip-path="url(#a0411aa2b6)"><path fill="#ffffff" d="M 357.351562 123.277344 C 353.066406 128.132812 347.640625 131.5625 341.640625 133.5625 L 348.785156 133.5625 C 356.78125 133.5625 363.351562 140.128906 363.351562 148.128906 L 363.351562 172.40625 C 363.351562 173.550781 362.207031 174.691406 360.78125 174.691406 L 303.082031 174.691406 C 301.652344 174.691406 300.507812 173.550781 300.507812 172.40625 L 300.507812 148.128906 C 300.507812 140.128906 307.078125 133.5625 315.078125 133.5625 L 322.21875 133.5625 C 316.21875 131.5625 310.792969 128.132812 306.507812 123.277344 C 296.511719 126.992188 289.082031 136.703125 289.082031 148.128906 L 289.082031 172.40625 C 289.082031 180.121094 295.367188 186.402344 303.082031 186.402344 L 360.78125 186.402344 C 368.492188 186.402344 374.777344 180.121094 374.777344 172.40625 L 374.777344 148.128906 C 374.777344 136.703125 367.351562 126.992188 357.351562 123.277344 Z M 357.351562 123.277344 " fill-opacity="1" fill-rule="nonzero"/></g><path fill="#ffffff" d="M 331.929688 123.847656 C 344.5 123.847656 354.78125 113.566406 354.78125 100.996094 C 354.78125 88.429688 344.5 78.144531 331.929688 78.144531 C 319.363281 78.144531 309.078125 88.429688 309.078125 100.996094 C 309.078125 113.566406 319.363281 123.847656 331.929688 123.847656 Z M 331.929688 89.570312 C 338.214844 89.570312 343.355469 94.714844 343.355469 100.996094 C 343.355469 107.28125 338.214844 112.421875 331.929688 112.421875 C 325.644531 112.421875 320.503906 107.28125 320.503906 100.996094 C 320.503906 94.714844 325.644531 89.570312 331.929688 89.570312 Z M 331.929688 89.570312 " fill-opacity="1" fill-rule="nonzero"/><path fill="#ffffff" d="M 191.964844 123.847656 C 204.535156 123.847656 214.816406 113.566406 214.816406 100.996094 C 214.816406 88.429688 204.535156 78.144531 191.964844 78.144531 C 179.398438 78.144531 169.113281 88.429688 169.113281 100.996094 C 169.113281 113.566406 179.398438 123.847656 191.964844 123.847656 Z M 191.964844 89.570312 C 198.25 89.570312 203.390625 94.714844 203.390625 100.996094 C 203.390625 107.28125 198.25 112.421875 191.964844 112.421875 C 185.679688 112.421875 180.539062 107.28125 180.539062 100.996094 C 180.539062 94.714844 185.679688 89.570312 191.964844 89.570312 Z M 191.964844 89.570312 " fill-opacity="1" fill-rule="nonzero"/><path fill="#ffffff" d="M 149.117188 148.128906 L 149.117188 171.835938 C 149.117188 179.261719 155.402344 185.546875 163.117188 185.546875 L 169.398438 185.546875 L 169.398438 174.121094 L 163.117188 174.121094 C 161.6875 174.121094 160.542969 173.265625 160.542969 171.835938 L 160.542969 148.128906 C 160.542969 140.414062 167.113281 133.847656 175.113281 133.847656 L 182.253906 133.847656 C 176.253906 132.132812 170.828125 128.417969 166.542969 123.847656 C 156.546875 127.277344 149.117188 136.988281 149.117188 148.128906 Z M 149.117188 148.128906 " fill-opacity="1" fill-rule="nonzero"/><path fill="#ffffff" d="M 201.675781 133.847656 L 208.816406 133.847656 C 216.816406 133.847656 223.386719 140.128906 223.386719 148.128906 L 223.386719 171.835938 C 223.386719 172.121094 223.386719 172.121094 223.386719 172.40625 C 223.386719 173.265625 223.386719 174.121094 223.386719 174.976562 L 223.386719 184.117188 C 224.242188 184.40625 225.101562 184.40625 225.957031 184.691406 C 231.097656 182.691406 234.8125 177.835938 234.8125 172.121094 L 234.8125 148.414062 C 234.8125 137.273438 227.386719 127.847656 217.386719 124.132812 C 213.101562 128.417969 207.960938 132.132812 201.675781 133.847656 Z M 201.675781 133.847656 " fill-opacity="1" fill-rule="nonzero"/><g clip-path="url(#97b9ef1f11)"><path fill="#ffffff" d="M 277.65625 232.105469 C 277.65625 223.25 270.515625 215.824219 261.375 215.824219 C 259.089844 215.824219 256.519531 216.394531 254.519531 217.253906 C 252.808594 210.113281 247.09375 205.257812 239.667969 205.257812 C 237.667969 205.257812 235.953125 205.542969 234.242188 206.113281 C 231.957031 199.542969 225.957031 194.6875 218.53125 194.6875 C 216.246094 194.6875 214.246094 195.257812 211.960938 195.832031 L 211.960938 174.691406 C 211.960938 164.980469 205.675781 157.554688 197.105469 157.554688 C 188.25 157.554688 180.824219 164.695312 180.824219 173.835938 L 180.824219 239.246094 C 177.113281 234.675781 172.542969 230.390625 167.398438 228.679688 C 163.117188 227.25 158.832031 227.535156 154.832031 229.25 C 152.261719 230.105469 148.832031 232.675781 147.121094 236.960938 C 144.261719 244.390625 147.121094 254.386719 155.972656 267.8125 L 183.96875 317.511719 C 187.679688 324.367188 196.535156 329.222656 204.246094 329.222656 L 253.09375 329.222656 C 261.375 329.222656 269.660156 322.941406 271.375 314.941406 C 273.945312 304.085938 276.800781 288.09375 277.65625 270.667969 C 277.371094 270.097656 277.65625 232.105469 277.65625 232.105469 Z M 266.234375 268.667969 C 265.660156 285.519531 262.804688 301.230469 260.234375 312.085938 C 259.664062 314.941406 256.234375 317.511719 253.09375 317.511719 L 204.246094 317.511719 C 200.535156 317.511719 195.679688 314.65625 193.964844 311.515625 C 193.964844 311.515625 165.6875 261.527344 165.6875 261.242188 C 156.546875 247.816406 157.402344 242.390625 157.6875 240.960938 C 158.257812 238.960938 161.6875 238.675781 163.402344 239.246094 C 170.828125 241.816406 181.109375 262.097656 181.109375 262.097656 C 181.96875 263.8125 183.683594 264.953125 185.679688 265.242188 C 189.109375 265.242188 191.964844 263.242188 191.964844 259.527344 L 191.964844 173.550781 C 191.964844 170.980469 193.679688 168.980469 196.535156 168.695312 C 199.390625 168.695312 200.25 172.121094 200.25 174.40625 L 200.25 258.957031 C 200.25 262.097656 202.820312 264.667969 205.960938 264.667969 C 209.105469 264.667969 211.675781 262.097656 211.675781 258.957031 L 211.675781 210.96875 C 211.675781 208.683594 214.246094 206.398438 217.386719 206.398438 C 219.957031 206.398438 223.101562 208.398438 223.101562 210.96875 L 223.101562 259.8125 C 223.101562 262.957031 225.671875 265.527344 228.8125 265.527344 C 231.957031 265.527344 234.527344 262.957031 234.527344 259.8125 L 234.527344 221.253906 C 234.8125 218.96875 236.8125 216.96875 239.382812 216.96875 C 242.238281 216.96875 243.382812 219.539062 243.382812 221.824219 L 243.382812 259.8125 C 243.382812 262.957031 245.953125 265.527344 249.09375 265.527344 C 252.234375 265.527344 254.808594 262.957031 254.808594 259.8125 L 254.808594 232.390625 C 254.808594 230.105469 258.234375 227.535156 261.375 227.535156 C 263.949219 227.535156 266.234375 229.535156 266.234375 232.390625 Z M 266.234375 268.667969 " fill-opacity="1" fill-rule="nonzero"/></g><g clip-path="url(#ae74fcc4e8)"><path fill="#ffffff" d="M 203.105469 60.4375 C 203.105469 60.8125 203.070312 61.183594 202.996094 61.550781 C 202.921875 61.917969 202.8125 62.277344 202.671875 62.621094 C 202.527344 62.96875 202.351562 63.296875 202.140625 63.609375 C 201.933594 63.921875 201.699219 64.210938 201.433594 64.476562 C 201.167969 64.742188 200.878906 64.976562 200.566406 65.1875 C 200.253906 65.394531 199.925781 65.570312 199.578125 65.714844 C 199.230469 65.859375 198.875 65.964844 198.507812 66.039062 C 198.140625 66.113281 197.769531 66.148438 197.390625 66.148438 C 197.015625 66.148438 196.644531 66.113281 196.277344 66.039062 C 195.910156 65.964844 195.554688 65.859375 195.207031 65.714844 C 194.859375 65.570312 194.53125 65.394531 194.21875 65.1875 C 193.90625 64.976562 193.617188 64.742188 193.351562 64.476562 C 193.085938 64.210938 192.851562 63.921875 192.640625 63.609375 C 192.433594 63.296875 192.257812 62.96875 192.113281 62.621094 C 191.972656 62.277344 191.863281 61.917969 191.789062 61.550781 C 191.714844 61.183594 191.679688 60.8125 191.679688 60.4375 C 191.679688 60.0625 191.714844 59.691406 191.789062 59.320312 C 191.863281 58.953125 191.972656 58.597656 192.113281 58.25 C 192.257812 57.902344 192.433594 57.574219 192.640625 57.261719 C 192.851562 56.949219 193.085938 56.664062 193.351562 56.398438 C 193.617188 56.132812 193.90625 55.894531 194.21875 55.6875 C 194.53125 55.476562 194.859375 55.300781 195.207031 55.160156 C 195.554688 55.015625 195.910156 54.90625 196.277344 54.832031 C 196.644531 54.761719 197.015625 54.722656 197.390625 54.722656 C 197.769531 54.722656 198.140625 54.761719 198.507812 54.832031 C 198.875 54.90625 199.230469 55.015625 199.578125 55.160156 C 199.925781 55.300781 200.253906 55.476562 200.566406 55.6875 C 200.878906 55.894531 201.167969 56.132812 201.433594 56.398438 C 201.699219 56.664062 201.933594 56.949219 202.140625 57.261719 C 202.351562 57.574219 202.527344 57.902344 202.671875 58.25 C 202.8125 58.597656 202.921875 58.953125 202.996094 59.320312 C 203.070312 59.691406 203.105469 60.0625 203.105469 60.4375 Z M 203.105469 60.4375 " fill-opacity="1" fill-rule="nonzero"/></g><path fill="#ffffff" d="M 180.539062 62.152344 C 180.539062 62.527344 180.503906 62.898438 180.429688 63.265625 C 180.355469 63.632812 180.25 63.992188 180.105469 64.335938 C 179.960938 64.683594 179.785156 65.011719 179.578125 65.324219 C 179.367188 65.636719 179.132812 65.925781 178.867188 66.191406 C 178.601562 66.457031 178.3125 66.691406 178 66.902344 C 177.6875 67.109375 177.359375 67.285156 177.011719 67.429688 C 176.667969 67.570312 176.308594 67.679688 175.941406 67.753906 C 175.574219 67.828125 175.203125 67.863281 174.828125 67.863281 C 174.453125 67.863281 174.078125 67.828125 173.710938 67.753906 C 173.34375 67.679688 172.988281 67.570312 172.640625 67.429688 C 172.292969 67.285156 171.964844 67.109375 171.652344 66.902344 C 171.339844 66.691406 171.050781 66.457031 170.785156 66.191406 C 170.523438 65.925781 170.285156 65.636719 170.078125 65.324219 C 169.867188 65.011719 169.691406 64.683594 169.546875 64.335938 C 169.40625 63.992188 169.296875 63.632812 169.222656 63.265625 C 169.152344 62.898438 169.113281 62.527344 169.113281 62.152344 C 169.113281 61.777344 169.152344 61.402344 169.222656 61.035156 C 169.296875 60.667969 169.40625 60.3125 169.546875 59.964844 C 169.691406 59.617188 169.867188 59.289062 170.078125 58.976562 C 170.285156 58.664062 170.523438 58.375 170.785156 58.109375 C 171.050781 57.847656 171.339844 57.609375 171.652344 57.402344 C 171.964844 57.191406 172.292969 57.015625 172.640625 56.871094 C 172.988281 56.730469 173.34375 56.621094 173.710938 56.546875 C 174.078125 56.472656 174.453125 56.4375 174.828125 56.4375 C 175.203125 56.4375 175.574219 56.472656 175.941406 56.546875 C 176.308594 56.621094 176.667969 56.730469 177.011719 56.871094 C 177.359375 57.015625 177.6875 57.191406 178 57.402344 C 178.3125 57.609375 178.601562 57.847656 178.867188 58.109375 C 179.132812 58.375 179.367188 58.664062 179.578125 58.976562 C 179.785156 59.289062 179.960938 59.617188 180.105469 59.964844 C 180.25 60.3125 180.355469 60.667969 180.429688 61.035156 C 180.503906 61.402344 180.539062 61.777344 180.539062 62.152344 Z M 180.539062 62.152344 " fill-opacity="1" fill-rule="nonzero"/><path fill="#ffffff" d="M 158.832031 70.71875 C 158.832031 71.09375 158.792969 71.464844 158.722656 71.835938 C 158.648438 72.203125 158.539062 72.558594 158.394531 72.90625 C 158.253906 73.253906 158.078125 73.582031 157.867188 73.894531 C 157.660156 74.207031 157.421875 74.492188 157.15625 74.757812 C 156.890625 75.023438 156.605469 75.261719 156.292969 75.46875 C 155.980469 75.679688 155.652344 75.855469 155.304688 75.996094 C 154.957031 76.140625 154.601562 76.25 154.230469 76.324219 C 153.863281 76.394531 153.492188 76.433594 153.117188 76.433594 C 152.742188 76.433594 152.371094 76.394531 152.003906 76.324219 C 151.636719 76.25 151.277344 76.140625 150.929688 75.996094 C 150.585938 75.855469 150.253906 75.679688 149.945312 75.46875 C 149.632812 75.261719 149.34375 75.023438 149.078125 74.757812 C 148.8125 74.492188 148.574219 74.207031 148.367188 73.894531 C 148.160156 73.582031 147.984375 73.253906 147.839844 72.90625 C 147.695312 72.558594 147.589844 72.203125 147.515625 71.835938 C 147.441406 71.464844 147.40625 71.09375 147.40625 70.71875 C 147.40625 70.34375 147.441406 69.972656 147.515625 69.605469 C 147.589844 69.238281 147.695312 68.878906 147.839844 68.535156 C 147.984375 68.1875 148.160156 67.859375 148.367188 67.546875 C 148.574219 67.234375 148.8125 66.945312 149.078125 66.679688 C 149.34375 66.414062 149.632812 66.179688 149.945312 65.96875 C 150.253906 65.761719 150.585938 65.585938 150.929688 65.441406 C 151.277344 65.296875 151.636719 65.191406 152.003906 65.117188 C 152.371094 65.042969 152.742188 65.007812 153.117188 65.007812 C 153.492188 65.007812 153.863281 65.042969 154.230469 65.117188 C 154.601562 65.191406 154.957031 65.296875 155.304688 65.441406 C 155.652344 65.585938 155.980469 65.761719 156.292969 65.96875 C 156.605469 66.179688 156.890625 66.414062 157.15625 66.679688 C 157.421875 66.945312 157.660156 67.234375 157.867188 67.546875 C 158.078125 67.859375 158.253906 68.1875 158.394531 68.535156 C 158.539062 68.878906 158.648438 69.238281 158.722656 69.605469 C 158.792969 69.972656 158.832031 70.34375 158.832031 70.71875 Z M 158.832031 70.71875 " fill-opacity="1" fill-rule="nonzero"/><path fill="#ffffff" d="M 141.121094 85 C 141.121094 85.375 141.085938 85.75 141.011719 86.117188 C 140.9375 86.484375 140.828125 86.839844 140.6875 87.1875 C 140.542969 87.535156 140.367188 87.863281 140.15625 88.175781 C 139.949219 88.488281 139.710938 88.777344 139.449219 89.042969 C 139.183594 89.304688 138.894531 89.542969 138.582031 89.75 C 138.269531 89.960938 137.941406 90.136719 137.59375 90.28125 C 137.246094 90.421875 136.890625 90.53125 136.523438 90.605469 C 136.15625 90.679688 135.78125 90.714844 135.40625 90.714844 C 135.03125 90.714844 134.660156 90.679688 134.292969 90.605469 C 133.925781 90.53125 133.566406 90.421875 133.222656 90.28125 C 132.875 90.136719 132.546875 89.960938 132.234375 89.75 C 131.921875 89.542969 131.632812 89.304688 131.367188 89.042969 C 131.101562 88.777344 130.867188 88.488281 130.65625 88.175781 C 130.449219 87.863281 130.273438 87.535156 130.128906 87.1875 C 129.988281 86.839844 129.878906 86.484375 129.804688 86.117188 C 129.730469 85.75 129.695312 85.375 129.695312 85 C 129.695312 84.625 129.730469 84.253906 129.804688 83.886719 C 129.878906 83.519531 129.988281 83.164062 130.128906 82.816406 C 130.273438 82.46875 130.449219 82.140625 130.65625 81.828125 C 130.867188 81.515625 131.101562 81.226562 131.367188 80.960938 C 131.632812 80.695312 131.921875 80.460938 132.234375 80.25 C 132.546875 80.042969 132.875 79.867188 133.222656 79.722656 C 133.566406 79.582031 133.925781 79.472656 134.292969 79.398438 C 134.660156 79.324219 135.03125 79.289062 135.40625 79.289062 C 135.78125 79.289062 136.15625 79.324219 136.523438 79.398438 C 136.890625 79.472656 137.246094 79.582031 137.59375 79.722656 C 137.941406 79.867188 138.269531 80.042969 138.582031 80.25 C 138.894531 80.460938 139.183594 80.695312 139.449219 80.960938 C 139.710938 81.226562 139.949219 81.515625 140.15625 81.828125 C 140.367188 82.140625 140.542969 82.46875 140.6875 82.816406 C 140.828125 83.164062 140.9375 83.519531 141.011719 83.886719 C 141.085938 84.253906 141.121094 84.625 141.121094 85 Z M 141.121094 85 " fill-opacity="1" fill-rule="nonzero"/><path fill="#ffffff" d="M 127.980469 104.140625 C 127.980469 104.515625 127.945312 104.886719 127.871094 105.253906 C 127.796875 105.621094 127.691406 105.980469 127.546875 106.324219 C 127.402344 106.671875 127.226562 107 127.019531 107.3125 C 126.808594 107.625 126.574219 107.914062 126.308594 108.179688 C 126.042969 108.445312 125.753906 108.679688 125.441406 108.890625 C 125.128906 109.097656 124.800781 109.273438 124.453125 109.417969 C 124.109375 109.5625 123.75 109.667969 123.382812 109.742188 C 123.015625 109.816406 122.644531 109.851562 122.269531 109.851562 C 121.894531 109.851562 121.523438 109.816406 121.152344 109.742188 C 120.785156 109.667969 120.429688 109.5625 120.082031 109.417969 C 119.734375 109.273438 119.40625 109.097656 119.09375 108.890625 C 118.78125 108.679688 118.492188 108.445312 118.230469 108.179688 C 117.964844 107.914062 117.726562 107.625 117.519531 107.3125 C 117.308594 107 117.132812 106.671875 116.992188 106.324219 C 116.847656 105.980469 116.738281 105.621094 116.664062 105.253906 C 116.59375 104.886719 116.554688 104.515625 116.554688 104.140625 C 116.554688 103.765625 116.59375 103.394531 116.664062 103.023438 C 116.738281 102.65625 116.847656 102.300781 116.992188 101.953125 C 117.132812 101.605469 117.308594 101.277344 117.519531 100.964844 C 117.726562 100.652344 117.964844 100.367188 118.230469 100.101562 C 118.492188 99.835938 118.78125 99.597656 119.09375 99.390625 C 119.40625 99.179688 119.734375 99.003906 120.082031 98.863281 C 120.429688 98.71875 120.785156 98.609375 121.152344 98.535156 C 121.523438 98.464844 121.894531 98.425781 122.269531 98.425781 C 122.644531 98.425781 123.015625 98.464844 123.382812 98.535156 C 123.75 98.609375 124.109375 98.71875 124.453125 98.863281 C 124.800781 99.003906 125.128906 99.179688 125.441406 99.390625 C 125.753906 99.597656 126.042969 99.835938 126.308594 100.101562 C 126.574219 100.367188 126.808594 100.652344 127.019531 100.964844 C 127.226562 101.277344 127.402344 101.605469 127.546875 101.953125 C 127.691406 102.300781 127.796875 102.65625 127.871094 103.023438 C 127.945312 103.394531 127.980469 103.765625 127.980469 104.140625 Z M 127.980469 104.140625 " fill-opacity="1" fill-rule="nonzero"/><path fill="#ffffff" d="M 121.410156 126.132812 C 121.410156 126.507812 121.375 126.878906 121.300781 127.25 C 121.226562 127.617188 121.121094 127.972656 120.976562 128.320312 C 120.832031 128.667969 120.65625 128.996094 120.449219 129.308594 C 120.242188 129.621094 120.003906 129.910156 119.738281 130.171875 C 119.472656 130.4375 119.183594 130.675781 118.871094 130.882812 C 118.5625 131.09375 118.230469 131.269531 117.886719 131.410156 C 117.539062 131.554688 117.179688 131.664062 116.8125 131.738281 C 116.445312 131.808594 116.074219 131.847656 115.699219 131.847656 C 115.324219 131.847656 114.953125 131.808594 114.585938 131.738281 C 114.214844 131.664062 113.859375 131.554688 113.511719 131.410156 C 113.164062 131.269531 112.835938 131.09375 112.523438 130.882812 C 112.210938 130.675781 111.925781 130.4375 111.660156 130.171875 C 111.394531 129.910156 111.15625 129.621094 110.949219 129.308594 C 110.738281 128.996094 110.5625 128.667969 110.421875 128.320312 C 110.277344 127.972656 110.167969 127.617188 110.09375 127.25 C 110.023438 126.878906 109.984375 126.507812 109.984375 126.132812 C 109.984375 125.757812 110.023438 125.386719 110.09375 125.019531 C 110.167969 124.652344 110.277344 124.292969 110.421875 123.949219 C 110.5625 123.601562 110.738281 123.273438 110.949219 122.960938 C 111.15625 122.648438 111.394531 122.359375 111.660156 122.09375 C 111.925781 121.828125 112.210938 121.59375 112.523438 121.382812 C 112.835938 121.175781 113.164062 121 113.511719 120.855469 C 113.859375 120.710938 114.214844 120.605469 114.585938 120.53125 C 114.953125 120.457031 115.324219 120.421875 115.699219 120.421875 C 116.074219 120.421875 116.445312 120.457031 116.8125 120.53125 C 117.179688 120.605469 117.539062 120.710938 117.886719 120.855469 C 118.230469 121 118.5625 121.175781 118.871094 121.382812 C 119.183594 121.59375 119.472656 121.828125 119.738281 122.09375 C 120.003906 122.359375 120.242188 122.648438 120.449219 122.960938 C 120.65625 123.273438 120.832031 123.601562 120.976562 123.949219 C 121.121094 124.292969 121.226562 124.652344 121.300781 125.019531 C 121.375 125.386719 121.410156 125.757812 121.410156 126.132812 Z M 121.410156 126.132812 " fill-opacity="1" fill-rule="nonzero"/><path fill="#ffffff" d="M 121.410156 148.984375 C 121.410156 149.359375 121.375 149.730469 121.300781 150.101562 C 121.226562 150.46875 121.121094 150.824219 120.976562 151.171875 C 120.832031 151.519531 120.65625 151.847656 120.449219 152.160156 C 120.242188 152.472656 120.003906 152.757812 119.738281 153.023438 C 119.472656 153.289062 119.183594 153.527344 118.871094 153.734375 C 118.5625 153.945312 118.230469 154.121094 117.886719 154.261719 C 117.539062 154.40625 117.179688 154.515625 116.8125 154.589844 C 116.445312 154.660156 116.074219 154.699219 115.699219 154.699219 C 115.324219 154.699219 114.953125 154.660156 114.585938 154.589844 C 114.214844 154.515625 113.859375 154.40625 113.511719 154.261719 C 113.164062 154.121094 112.835938 153.945312 112.523438 153.734375 C 112.210938 153.527344 111.925781 153.289062 111.660156 153.023438 C 111.394531 152.757812 111.15625 152.472656 110.949219 152.160156 C 110.738281 151.847656 110.5625 151.519531 110.421875 151.171875 C 110.277344 150.824219 110.167969 150.46875 110.09375 150.101562 C 110.023438 149.730469 109.984375 149.359375 109.984375 148.984375 C 109.984375 148.609375 110.023438 148.238281 110.09375 147.871094 C 110.167969 147.503906 110.277344 147.144531 110.421875 146.800781 C 110.5625 146.453125 110.738281 146.125 110.949219 145.8125 C 111.15625 145.5 111.394531 145.210938 111.660156 144.945312 C 111.925781 144.679688 112.210938 144.445312 112.523438 144.234375 C 112.835938 144.027344 113.164062 143.851562 113.511719 143.707031 C 113.859375 143.5625 114.214844 143.457031 114.585938 143.382812 C 114.953125 143.308594 115.324219 143.273438 115.699219 143.273438 C 116.074219 143.273438 116.445312 143.308594 116.8125 143.382812 C 117.179688 143.457031 117.539062 143.5625 117.886719 143.707031 C 118.230469 143.851562 118.5625 144.027344 118.871094 144.234375 C 119.183594 144.445312 119.472656 144.679688 119.738281 144.945312 C 120.003906 145.210938 120.242188 145.5 120.449219 145.8125 C 120.65625 146.125 120.832031 146.453125 120.976562 146.800781 C 121.121094 147.144531 121.226562 147.503906 121.300781 147.871094 C 121.375 148.238281 121.410156 148.609375 121.410156 148.984375 Z M 121.410156 148.984375 " fill-opacity="1" fill-rule="nonzero"/><path fill="#ffffff" d="M 127.980469 170.980469 C 127.980469 171.355469 127.945312 171.726562 127.871094 172.09375 C 127.796875 172.460938 127.691406 172.820312 127.546875 173.164062 C 127.402344 173.511719 127.226562 173.839844 127.019531 174.152344 C 126.808594 174.464844 126.574219 174.753906 126.308594 175.019531 C 126.042969 175.285156 125.753906 175.519531 125.441406 175.730469 C 125.128906 175.9375 124.800781 176.113281 124.453125 176.257812 C 124.109375 176.402344 123.75 176.507812 123.382812 176.582031 C 123.015625 176.65625 122.644531 176.691406 122.269531 176.691406 C 121.894531 176.691406 121.523438 176.65625 121.152344 176.582031 C 120.785156 176.507812 120.429688 176.402344 120.082031 176.257812 C 119.734375 176.113281 119.40625 175.9375 119.09375 175.730469 C 118.78125 175.519531 118.492188 175.285156 118.230469 175.019531 C 117.964844 174.753906 117.726562 174.464844 117.519531 174.152344 C 117.308594 173.839844 117.132812 173.511719 116.992188 173.164062 C 116.847656 172.820312 116.738281 172.460938 116.664062 172.09375 C 116.59375 171.726562 116.554688 171.355469 116.554688 170.980469 C 116.554688 170.605469 116.59375 170.234375 116.664062 169.863281 C 116.738281 169.496094 116.847656 169.140625 116.992188 168.792969 C 117.132812 168.445312 117.308594 168.117188 117.519531 167.804688 C 117.726562 167.492188 117.964844 167.207031 118.230469 166.941406 C 118.492188 166.675781 118.78125 166.4375 119.09375 166.230469 C 119.40625 166.019531 119.734375 165.84375 120.082031 165.703125 C 120.429688 165.558594 120.785156 165.449219 121.152344 165.375 C 121.523438 165.304688 121.894531 165.265625 122.269531 165.265625 C 122.644531 165.265625 123.015625 165.304688 123.382812 165.375 C 123.75 165.449219 124.109375 165.558594 124.453125 165.703125 C 124.800781 165.84375 125.128906 166.019531 125.441406 166.230469 C 125.753906 166.4375 126.042969 166.675781 126.308594 166.941406 C 126.574219 167.207031 126.808594 167.492188 127.019531 167.804688 C 127.226562 168.117188 127.402344 168.445312 127.546875 168.792969 C 127.691406 169.140625 127.796875 169.496094 127.871094 169.863281 C 127.945312 170.234375 127.980469 170.605469 127.980469 170.980469 Z M 127.980469 170.980469 " fill-opacity="1" fill-rule="nonzero"/><path fill="#ffffff" d="M 141.121094 190.117188 C 141.121094 190.492188 141.085938 190.863281 141.011719 191.230469 C 140.9375 191.601562 140.828125 191.957031 140.6875 192.304688 C 140.542969 192.648438 140.367188 192.980469 140.15625 193.292969 C 139.949219 193.601562 139.710938 193.890625 139.449219 194.15625 C 139.183594 194.421875 138.894531 194.660156 138.582031 194.867188 C 138.269531 195.074219 137.941406 195.25 137.59375 195.394531 C 137.246094 195.539062 136.890625 195.648438 136.523438 195.71875 C 136.15625 195.792969 135.78125 195.832031 135.40625 195.832031 C 135.03125 195.832031 134.660156 195.792969 134.292969 195.71875 C 133.925781 195.648438 133.566406 195.539062 133.222656 195.394531 C 132.875 195.25 132.546875 195.074219 132.234375 194.867188 C 131.921875 194.660156 131.632812 194.421875 131.367188 194.15625 C 131.101562 193.890625 130.867188 193.601562 130.65625 193.292969 C 130.449219 192.980469 130.273438 192.648438 130.128906 192.304688 C 129.988281 191.957031 129.878906 191.601562 129.804688 191.230469 C 129.730469 190.863281 129.695312 190.492188 129.695312 190.117188 C 129.695312 189.742188 129.730469 189.371094 129.804688 189.003906 C 129.878906 188.636719 129.988281 188.277344 130.128906 187.929688 C 130.273438 187.585938 130.449219 187.253906 130.65625 186.945312 C 130.867188 186.632812 131.101562 186.34375 131.367188 186.078125 C 131.632812 185.8125 131.921875 185.574219 132.234375 185.367188 C 132.546875 185.160156 132.875 184.984375 133.222656 184.839844 C 133.566406 184.695312 133.925781 184.585938 134.292969 184.515625 C 134.660156 184.441406 135.03125 184.40625 135.40625 184.40625 C 135.78125 184.40625 136.15625 184.441406 136.523438 184.515625 C 136.890625 184.585938 137.246094 184.695312 137.59375 184.839844 C 137.941406 184.984375 138.269531 185.160156 138.582031 185.367188 C 138.894531 185.574219 139.183594 185.8125 139.449219 186.078125 C 139.710938 186.34375 139.949219 186.632812 140.15625 186.945312 C 140.367188 187.253906 140.542969 187.585938 140.6875 187.929688 C 140.828125 188.277344 140.9375 188.636719 141.011719 189.003906 C 141.085938 189.371094 141.121094 189.742188 141.121094 190.117188 Z M 141.121094 190.117188 " fill-opacity="1" fill-rule="nonzero"/><path fill="#ffffff" d="M 159.117188 204.398438 C 159.117188 204.773438 159.078125 205.144531 159.007812 205.515625 C 158.933594 205.882812 158.824219 206.238281 158.679688 206.585938 C 158.539062 206.933594 158.363281 207.261719 158.152344 207.574219 C 157.945312 207.886719 157.707031 208.171875 157.441406 208.4375 C 157.179688 208.703125 156.890625 208.941406 156.578125 209.148438 C 156.265625 209.359375 155.9375 209.535156 155.589844 209.675781 C 155.242188 209.820312 154.886719 209.929688 154.519531 210.003906 C 154.148438 210.074219 153.777344 210.113281 153.402344 210.113281 C 153.027344 210.113281 152.65625 210.074219 152.289062 210.003906 C 151.921875 209.929688 151.5625 209.820312 151.21875 209.675781 C 150.871094 209.535156 150.542969 209.359375 150.230469 209.148438 C 149.917969 208.941406 149.628906 208.703125 149.363281 208.4375 C 149.097656 208.171875 148.863281 207.886719 148.652344 207.574219 C 148.445312 207.261719 148.269531 206.933594 148.125 206.585938 C 147.980469 206.238281 147.875 205.882812 147.800781 205.515625 C 147.726562 205.144531 147.691406 204.773438 147.691406 204.398438 C 147.691406 204.023438 147.726562 203.652344 147.800781 203.285156 C 147.875 202.917969 147.980469 202.558594 148.125 202.214844 C 148.269531 201.867188 148.445312 201.539062 148.652344 201.226562 C 148.863281 200.914062 149.097656 200.625 149.363281 200.359375 C 149.628906 200.09375 149.917969 199.859375 150.230469 199.648438 C 150.542969 199.441406 150.871094 199.265625 151.21875 199.121094 C 151.5625 198.976562 151.921875 198.871094 152.289062 198.796875 C 152.65625 198.722656 153.027344 198.6875 153.402344 198.6875 C 153.777344 198.6875 154.148438 198.722656 154.519531 198.796875 C 154.886719 198.871094 155.242188 198.976562 155.589844 199.121094 C 155.9375 199.265625 156.265625 199.441406 156.578125 199.648438 C 156.890625 199.859375 157.179688 200.09375 157.441406 200.359375 C 157.707031 200.625 157.945312 200.914062 158.152344 201.226562 C 158.363281 201.539062 158.539062 201.867188 158.679688 202.214844 C 158.824219 202.558594 158.933594 202.917969 159.007812 203.285156 C 159.078125 203.652344 159.117188 204.023438 159.117188 204.398438 Z M 159.117188 204.398438 " fill-opacity="1" fill-rule="nonzero"/><path fill="#ffffff" d="M 225.671875 65.578125 C 225.671875 65.953125 225.632812 66.324219 225.5625 66.691406 C 225.488281 67.0625 225.378906 67.417969 225.234375 67.765625 C 225.09375 68.109375 224.917969 68.441406 224.707031 68.753906 C 224.5 69.0625 224.261719 69.351562 223.996094 69.617188 C 223.734375 69.882812 223.445312 70.121094 223.132812 70.328125 C 222.820312 70.535156 222.492188 70.710938 222.144531 70.855469 C 221.796875 71 221.441406 71.109375 221.074219 71.179688 C 220.703125 71.253906 220.332031 71.292969 219.957031 71.292969 C 219.582031 71.292969 219.210938 71.253906 218.84375 71.179688 C 218.476562 71.109375 218.117188 71 217.773438 70.855469 C 217.425781 70.710938 217.097656 70.535156 216.785156 70.328125 C 216.472656 70.121094 216.183594 69.882812 215.917969 69.617188 C 215.652344 69.351562 215.417969 69.0625 215.207031 68.753906 C 215 68.441406 214.824219 68.109375 214.679688 67.765625 C 214.535156 67.417969 214.429688 67.0625 214.355469 66.691406 C 214.28125 66.324219 214.246094 65.953125 214.246094 65.578125 C 214.246094 65.203125 214.28125 64.832031 214.355469 64.464844 C 214.429688 64.097656 214.535156 63.738281 214.679688 63.390625 C 214.824219 63.046875 215 62.714844 215.207031 62.40625 C 215.417969 62.09375 215.652344 61.804688 215.917969 61.539062 C 216.183594 61.273438 216.472656 61.035156 216.785156 60.828125 C 217.097656 60.621094 217.425781 60.445312 217.773438 60.300781 C 218.117188 60.15625 218.476562 60.046875 218.84375 59.976562 C 219.210938 59.902344 219.582031 59.867188 219.957031 59.867188 C 220.332031 59.867188 220.703125 59.902344 221.074219 59.976562 C 221.441406 60.046875 221.796875 60.15625 222.144531 60.300781 C 222.492188 60.445312 222.820312 60.621094 223.132812 60.828125 C 223.445312 61.035156 223.734375 61.273438 223.996094 61.539062 C 224.261719 61.804688 224.5 62.09375 224.707031 62.40625 C 224.917969 62.714844 225.09375 63.046875 225.234375 63.390625 C 225.378906 63.738281 225.488281 64.097656 225.5625 64.464844 C 225.632812 64.832031 225.671875 65.203125 225.671875 65.578125 Z M 225.671875 65.578125 " fill-opacity="1" fill-rule="nonzero"/><path fill="#ffffff" d="M 245.667969 76.433594 C 245.667969 76.808594 245.628906 77.179688 245.554688 77.546875 C 245.484375 77.914062 245.375 78.273438 245.230469 78.617188 C 245.085938 78.964844 244.910156 79.292969 244.703125 79.605469 C 244.496094 79.917969 244.257812 80.207031 243.992188 80.472656 C 243.726562 80.738281 243.4375 80.972656 243.128906 81.183594 C 242.816406 81.390625 242.484375 81.566406 242.140625 81.710938 C 241.792969 81.855469 241.4375 81.960938 241.066406 82.035156 C 240.699219 82.109375 240.328125 82.144531 239.953125 82.144531 C 239.578125 82.144531 239.207031 82.109375 238.839844 82.035156 C 238.472656 81.960938 238.113281 81.855469 237.765625 81.710938 C 237.421875 81.566406 237.089844 81.390625 236.78125 81.183594 C 236.46875 80.972656 236.179688 80.738281 235.914062 80.472656 C 235.648438 80.207031 235.410156 79.917969 235.203125 79.605469 C 234.996094 79.292969 234.820312 78.964844 234.675781 78.617188 C 234.53125 78.273438 234.421875 77.914062 234.351562 77.546875 C 234.277344 77.179688 234.242188 76.808594 234.242188 76.433594 C 234.242188 76.058594 234.277344 75.6875 234.351562 75.316406 C 234.421875 74.949219 234.53125 74.59375 234.675781 74.246094 C 234.820312 73.898438 234.996094 73.570312 235.203125 73.257812 C 235.410156 72.945312 235.648438 72.660156 235.914062 72.394531 C 236.179688 72.128906 236.46875 71.890625 236.78125 71.683594 C 237.089844 71.472656 237.421875 71.296875 237.765625 71.15625 C 238.113281 71.011719 238.472656 70.902344 238.839844 70.828125 C 239.207031 70.757812 239.578125 70.71875 239.953125 70.71875 C 240.328125 70.71875 240.699219 70.757812 241.066406 70.828125 C 241.4375 70.902344 241.792969 71.011719 242.140625 71.15625 C 242.484375 71.296875 242.816406 71.472656 243.128906 71.683594 C 243.4375 71.890625 243.726562 72.128906 243.992188 72.394531 C 244.257812 72.660156 244.496094 72.945312 244.703125 73.257812 C 244.910156 73.570312 245.085938 73.898438 245.230469 74.246094 C 245.375 74.59375 245.484375 74.949219 245.554688 75.316406 C 245.628906 75.6875 245.667969 76.058594 245.667969 76.433594 Z M 245.667969 76.433594 " fill-opacity="1" fill-rule="nonzero"/><path fill="#ffffff" d="M 261.375 93.570312 C 261.375 93.945312 261.339844 94.316406 261.265625 94.683594 C 261.195312 95.054688 261.085938 95.410156 260.941406 95.757812 C 260.796875 96.105469 260.621094 96.433594 260.414062 96.746094 C 260.207031 97.058594 259.96875 97.34375 259.703125 97.609375 C 259.4375 97.875 259.148438 98.113281 258.835938 98.320312 C 258.527344 98.53125 258.195312 98.707031 257.851562 98.847656 C 257.503906 98.992188 257.144531 99.101562 256.777344 99.175781 C 256.410156 99.246094 256.039062 99.285156 255.664062 99.285156 C 255.289062 99.285156 254.917969 99.246094 254.550781 99.175781 C 254.179688 99.101562 253.824219 98.992188 253.476562 98.847656 C 253.132812 98.707031 252.800781 98.53125 252.488281 98.320312 C 252.179688 98.113281 251.890625 97.875 251.625 97.609375 C 251.359375 97.34375 251.121094 97.058594 250.914062 96.746094 C 250.707031 96.433594 250.527344 96.105469 250.386719 95.757812 C 250.242188 95.410156 250.132812 95.054688 250.0625 94.683594 C 249.988281 94.316406 249.949219 93.945312 249.949219 93.570312 C 249.949219 93.195312 249.988281 92.824219 250.0625 92.457031 C 250.132812 92.089844 250.242188 91.730469 250.386719 91.386719 C 250.527344 91.039062 250.707031 90.710938 250.914062 90.398438 C 251.121094 90.085938 251.359375 89.796875 251.625 89.53125 C 251.890625 89.265625 252.179688 89.03125 252.488281 88.820312 C 252.800781 88.613281 253.132812 88.4375 253.476562 88.292969 C 253.824219 88.148438 254.179688 88.042969 254.550781 87.96875 C 254.917969 87.894531 255.289062 87.859375 255.664062 87.859375 C 256.039062 87.859375 256.410156 87.894531 256.777344 87.96875 C 257.144531 88.042969 257.503906 88.148438 257.851562 88.292969 C 258.195312 88.4375 258.527344 88.613281 258.835938 88.820312 C 259.148438 89.03125 259.4375 89.265625 259.703125 89.53125 C 259.96875 89.796875 260.207031 90.085938 260.414062 90.398438 C 260.621094 90.710938 260.796875 91.039062 260.941406 91.386719 C 261.085938 91.730469 261.195312 92.089844 261.265625 92.457031 C 261.339844 92.824219 261.375 93.195312 261.375 93.570312 Z M 261.375 93.570312 " fill-opacity="1" fill-rule="nonzero"/><path fill="#ffffff" d="M 271.375 114.421875 C 271.375 114.796875 271.335938 115.167969 271.265625 115.539062 C 271.191406 115.90625 271.082031 116.261719 270.9375 116.609375 C 270.796875 116.957031 270.621094 117.285156 270.410156 117.597656 C 270.203125 117.910156 269.964844 118.195312 269.699219 118.460938 C 269.433594 118.726562 269.148438 118.964844 268.835938 119.171875 C 268.523438 119.382812 268.195312 119.558594 267.847656 119.699219 C 267.5 119.84375 267.144531 119.953125 266.777344 120.027344 C 266.40625 120.097656 266.035156 120.136719 265.660156 120.136719 C 265.285156 120.136719 264.914062 120.097656 264.546875 120.027344 C 264.179688 119.953125 263.820312 119.84375 263.476562 119.699219 C 263.128906 119.558594 262.800781 119.382812 262.488281 119.171875 C 262.175781 118.964844 261.886719 118.726562 261.621094 118.460938 C 261.355469 118.195312 261.121094 117.910156 260.910156 117.597656 C 260.703125 117.285156 260.527344 116.957031 260.382812 116.609375 C 260.238281 116.261719 260.132812 115.90625 260.058594 115.539062 C 259.984375 115.167969 259.949219 114.796875 259.949219 114.421875 C 259.949219 114.046875 259.984375 113.675781 260.058594 113.308594 C 260.132812 112.941406 260.238281 112.582031 260.382812 112.238281 C 260.527344 111.890625 260.703125 111.5625 260.910156 111.25 C 261.121094 110.9375 261.355469 110.648438 261.621094 110.382812 C 261.886719 110.117188 262.175781 109.882812 262.488281 109.671875 C 262.800781 109.464844 263.128906 109.289062 263.476562 109.144531 C 263.820312 109 264.179688 108.894531 264.546875 108.820312 C 264.914062 108.746094 265.285156 108.710938 265.660156 108.710938 C 266.035156 108.710938 266.40625 108.746094 266.777344 108.820312 C 267.144531 108.894531 267.5 109 267.847656 109.144531 C 268.195312 109.289062 268.523438 109.464844 268.835938 109.671875 C 269.148438 109.882812 269.433594 110.117188 269.699219 110.382812 C 269.964844 110.648438 270.203125 110.9375 270.410156 111.25 C 270.621094 111.5625 270.796875 111.890625 270.9375 112.238281 C 271.082031 112.582031 271.191406 112.941406 271.265625 113.308594 C 271.335938 113.675781 271.375 114.046875 271.375 114.421875 Z M 271.375 114.421875 " fill-opacity="1" fill-rule="nonzero"/><path fill="#ffffff" d="M 274.800781 137.273438 C 274.800781 137.648438 274.765625 138.019531 274.691406 138.386719 C 274.617188 138.757812 274.511719 139.113281 274.367188 139.460938 C 274.222656 139.808594 274.046875 140.136719 273.839844 140.449219 C 273.628906 140.757812 273.394531 141.046875 273.128906 141.3125 C 272.863281 141.578125 272.574219 141.816406 272.261719 142.023438 C 271.949219 142.230469 271.621094 142.410156 271.273438 142.550781 C 270.929688 142.695312 270.570312 142.804688 270.203125 142.875 C 269.835938 142.949219 269.464844 142.988281 269.089844 142.988281 C 268.714844 142.988281 268.34375 142.949219 267.972656 142.875 C 267.605469 142.804688 267.25 142.695312 266.902344 142.550781 C 266.554688 142.410156 266.226562 142.230469 265.914062 142.023438 C 265.601562 141.816406 265.316406 141.578125 265.050781 141.3125 C 264.785156 141.046875 264.546875 140.757812 264.339844 140.449219 C 264.128906 140.136719 263.953125 139.808594 263.8125 139.460938 C 263.667969 139.113281 263.558594 138.757812 263.484375 138.386719 C 263.414062 138.019531 263.375 137.648438 263.375 137.273438 C 263.375 136.898438 263.414062 136.527344 263.484375 136.160156 C 263.558594 135.792969 263.667969 135.433594 263.8125 135.085938 C 263.953125 134.742188 264.128906 134.410156 264.339844 134.101562 C 264.546875 133.789062 264.785156 133.5 265.050781 133.234375 C 265.316406 132.96875 265.601562 132.730469 265.914062 132.523438 C 266.226562 132.316406 266.554688 132.140625 266.902344 131.996094 C 267.25 131.851562 267.605469 131.742188 267.972656 131.671875 C 268.34375 131.597656 268.714844 131.5625 269.089844 131.5625 C 269.464844 131.5625 269.835938 131.597656 270.203125 131.671875 C 270.570312 131.742188 270.929688 131.851562 271.273438 131.996094 C 271.621094 132.140625 271.949219 132.316406 272.261719 132.523438 C 272.574219 132.730469 272.863281 132.96875 273.128906 133.234375 C 273.394531 133.5 273.628906 133.789062 273.839844 134.101562 C 274.046875 134.410156 274.222656 134.742188 274.367188 135.085938 C 274.511719 135.433594 274.617188 135.792969 274.691406 136.160156 C 274.765625 136.527344 274.800781 136.898438 274.800781 137.273438 Z M 274.800781 137.273438 " fill-opacity="1" fill-rule="nonzero"/><path fill="#ffffff" d="M 271.375 160.125 C 271.375 160.5 271.335938 160.871094 271.265625 161.238281 C 271.191406 161.609375 271.082031 161.964844 270.9375 162.3125 C 270.796875 162.65625 270.621094 162.988281 270.410156 163.300781 C 270.203125 163.609375 269.964844 163.898438 269.699219 164.164062 C 269.433594 164.429688 269.148438 164.667969 268.835938 164.875 C 268.523438 165.082031 268.195312 165.257812 267.847656 165.402344 C 267.5 165.546875 267.144531 165.65625 266.777344 165.726562 C 266.40625 165.800781 266.035156 165.839844 265.660156 165.839844 C 265.285156 165.839844 264.914062 165.800781 264.546875 165.726562 C 264.179688 165.65625 263.820312 165.546875 263.476562 165.402344 C 263.128906 165.257812 262.800781 165.082031 262.488281 164.875 C 262.175781 164.667969 261.886719 164.429688 261.621094 164.164062 C 261.355469 163.898438 261.121094 163.609375 260.910156 163.300781 C 260.703125 162.988281 260.527344 162.65625 260.382812 162.3125 C 260.238281 161.964844 260.132812 161.609375 260.058594 161.238281 C 259.984375 160.871094 259.949219 160.5 259.949219 160.125 C 259.949219 159.75 259.984375 159.378906 260.058594 159.011719 C 260.132812 158.644531 260.238281 158.285156 260.382812 157.9375 C 260.527344 157.59375 260.703125 157.261719 260.910156 156.953125 C 261.121094 156.640625 261.355469 156.351562 261.621094 156.085938 C 261.886719 155.820312 262.175781 155.582031 262.488281 155.375 C 262.800781 155.167969 263.128906 154.992188 263.476562 154.847656 C 263.820312 154.703125 264.179688 154.59375 264.546875 154.523438 C 264.914062 154.449219 265.285156 154.414062 265.660156 154.414062 C 266.035156 154.414062 266.40625 154.449219 266.777344 154.523438 C 267.144531 154.59375 267.5 154.703125 267.847656 154.847656 C 268.195312 154.992188 268.523438 155.167969 268.835938 155.375 C 269.148438 155.582031 269.433594 155.820312 269.699219 156.085938 C 269.964844 156.351562 270.203125 156.640625 270.410156 156.953125 C 270.621094 157.261719 270.796875 157.59375 270.9375 157.9375 C 271.082031 158.285156 271.191406 158.644531 271.265625 159.011719 C 271.335938 159.378906 271.375 159.75 271.375 160.125 Z M 271.375 160.125 " fill-opacity="1" fill-rule="nonzero"/><path fill="#ffffff" d="M 261.375 180.976562 C 261.375 181.351562 261.339844 181.722656 261.265625 182.089844 C 261.195312 182.460938 261.085938 182.816406 260.941406 183.164062 C 260.796875 183.507812 260.621094 183.839844 260.414062 184.152344 C 260.207031 184.460938 259.96875 184.75 259.703125 185.015625 C 259.4375 185.28125 259.148438 185.519531 258.835938 185.726562 C 258.527344 185.933594 258.195312 186.109375 257.851562 186.253906 C 257.503906 186.398438 257.144531 186.507812 256.777344 186.578125 C 256.410156 186.652344 256.039062 186.691406 255.664062 186.691406 C 255.289062 186.691406 254.917969 186.652344 254.550781 186.578125 C 254.179688 186.507812 253.824219 186.398438 253.476562 186.253906 C 253.132812 186.109375 252.800781 185.933594 252.488281 185.726562 C 252.179688 185.519531 251.890625 185.28125 251.625 185.015625 C 251.359375 184.75 251.121094 184.460938 250.914062 184.152344 C 250.707031 183.839844 250.527344 183.507812 250.386719 183.164062 C 250.242188 182.816406 250.132812 182.460938 250.0625 182.089844 C 249.988281 181.722656 249.949219 181.351562 249.949219 180.976562 C 249.949219 180.601562 249.988281 180.230469 250.0625 179.863281 C 250.132812 179.496094 250.242188 179.136719 250.386719 178.789062 C 250.527344 178.445312 250.707031 178.113281 250.914062 177.804688 C 251.121094 177.492188 251.359375 177.203125 251.625 176.9375 C 251.890625 176.671875 252.179688 176.433594 252.488281 176.226562 C 252.800781 176.019531 253.132812 175.84375 253.476562 175.699219 C 253.824219 175.554688 254.179688 175.445312 254.550781 175.375 C 254.917969 175.300781 255.289062 175.265625 255.664062 175.265625 C 256.039062 175.265625 256.410156 175.300781 256.777344 175.375 C 257.144531 175.445312 257.503906 175.554688 257.851562 175.699219 C 258.195312 175.84375 258.527344 176.019531 258.835938 176.226562 C 259.148438 176.433594 259.4375 176.671875 259.703125 176.9375 C 259.96875 177.203125 260.207031 177.492188 260.414062 177.804688 C 260.621094 178.113281 260.796875 178.445312 260.941406 178.789062 C 261.085938 179.136719 261.195312 179.496094 261.265625 179.863281 C 261.339844 180.230469 261.375 180.601562 261.375 180.976562 Z M 261.375 180.976562 " fill-opacity="1" fill-rule="nonzero"/></svg>