<svg xmlns="http://www.w3.org/2000/svg" xmlns:xlink="http://www.w3.org/1999/xlink" width="512" zoomAndPan="magnify" viewBox="0 0 384 383.999986" height="512" preserveAspectRatio="xMidYMid meet" version="1.0"><defs><clipPath id="ffbbd07fe0"><path d="M 68 40 L 323.515625 40 L 323.515625 344 L 68 344 Z M 68 40 " clip-rule="nonzero"/></clipPath></defs><g clip-path="url(#ffbbd07fe0)"><path fill="#ffffff" d="M 196.144531 40.335938 L 78.207031 40.335938 C 72.628906 40.335938 68.097656 44.867188 68.097656 50.457031 L 68.097656 333.84375 C 68.097656 339.429688 72.628906 343.964844 78.207031 343.964844 L 314.082031 343.964844 C 319.664062 343.964844 324.191406 339.429688 324.191406 333.84375 L 324.191406 192.148438 C 324.191406 186.5625 319.664062 182.027344 314.082031 182.027344 C 308.503906 182.027344 303.976562 186.5625 303.976562 192.148438 L 303.976562 323.722656 C 303.976562 323.722656 88.316406 323.722656 88.316406 323.722656 C 88.316406 323.722656 88.316406 60.578125 88.316406 60.578125 C 88.316406 60.578125 196.144531 60.578125 196.144531 60.578125 C 201.726562 60.578125 206.253906 56.042969 206.253906 50.457031 C 206.253906 44.867188 201.726562 40.335938 196.144531 40.335938 Z M 318.8125 111.980469 C 322.765625 108.023438 322.765625 101.617188 318.8125 97.660156 L 290.226562 69.039062 C 286.273438 65.082031 279.875 65.082031 275.933594 69.039062 L 175.855469 169.226562 C 174.753906 170.339844 173.917969 171.695312 173.421875 173.183594 L 159.117188 216.125 C 157.914062 219.761719 158.855469 223.769531 161.5625 226.480469 C 164.273438 229.191406 168.277344 230.144531 171.90625 228.929688 L 214.796875 214.617188 C 216.28125 214.121094 217.636719 213.28125 218.75 212.167969 Z M 261.640625 111.980469 L 275.933594 126.292969 L 206.144531 196.167969 C 206.144531 196.167969 184.691406 203.324219 184.691406 203.324219 C 184.691406 203.324219 191.839844 181.855469 191.839844 181.855469 Z M 275.933594 97.660156 L 283.082031 90.503906 L 297.375 104.816406 L 290.226562 111.980469 Z M 275.933594 97.660156 " fill-opacity="1" fill-rule="evenodd"/></g></svg>