<svg xmlns="http://www.w3.org/2000/svg" xmlns:xlink="http://www.w3.org/1999/xlink" width="512" zoomAndPan="magnify" viewBox="0 0 384 383.999986" height="512" preserveAspectRatio="xMidYMid meet" version="1.0"><defs><clipPath id="97e133c0d3"><path d="M 27.894531 52.511719 L 356.394531 52.511719 L 356.394531 331.511719 L 27.894531 331.511719 Z M 27.894531 52.511719 " clip-rule="nonzero"/></clipPath></defs><g clip-path="url(#97e133c0d3)"><path fill="#ffffff" d="M 110.019531 109.953125 C 110.019531 109.144531 109.980469 108.339844 109.902344 107.539062 C 109.820312 106.738281 109.703125 105.941406 109.546875 105.148438 C 109.386719 104.359375 109.191406 103.578125 108.957031 102.804688 C 108.722656 102.035156 108.453125 101.277344 108.144531 100.53125 C 107.835938 99.785156 107.492188 99.058594 107.109375 98.347656 C 106.730469 97.636719 106.316406 96.945312 105.867188 96.273438 C 105.417969 95.605469 104.9375 94.957031 104.425781 94.335938 C 103.914062 93.710938 103.375 93.113281 102.804688 92.542969 C 102.234375 91.972656 101.636719 91.433594 101.011719 90.921875 C 100.386719 90.410156 99.742188 89.929688 99.070312 89.484375 C 98.398438 89.035156 97.707031 88.621094 96.996094 88.242188 C 96.285156 87.859375 95.554688 87.515625 94.808594 87.207031 C 94.066406 86.898438 93.304688 86.628906 92.535156 86.394531 C 91.761719 86.160156 90.980469 85.964844 90.1875 85.808594 C 89.398438 85.648438 88.601562 85.53125 87.796875 85.453125 C 86.992188 85.375 86.1875 85.335938 85.382812 85.335938 C 84.574219 85.335938 83.769531 85.375 82.96875 85.453125 C 82.164062 85.53125 81.367188 85.648438 80.574219 85.808594 C 79.785156 85.964844 79.003906 86.160156 78.230469 86.394531 C 77.457031 86.628906 76.699219 86.898438 75.953125 87.207031 C 75.207031 87.515625 74.480469 87.859375 73.769531 88.242188 C 73.054688 88.621094 72.363281 89.035156 71.695312 89.484375 C 71.023438 89.929688 70.375 90.410156 69.753906 90.921875 C 69.128906 91.433594 68.53125 91.972656 67.960938 92.542969 C 67.390625 93.113281 66.847656 93.710938 66.335938 94.335938 C 65.824219 94.957031 65.34375 95.605469 64.898438 96.273438 C 64.449219 96.945312 64.035156 97.636719 63.652344 98.347656 C 63.273438 99.058594 62.929688 99.785156 62.621094 100.53125 C 62.3125 101.277344 62.039062 102.035156 61.804688 102.804688 C 61.570312 103.578125 61.375 104.359375 61.21875 105.148438 C 61.058594 105.941406 60.941406 106.738281 60.863281 107.539062 C 60.785156 108.339844 60.746094 109.144531 60.746094 109.953125 C 60.746094 110.757812 60.785156 111.5625 60.863281 112.363281 C 60.941406 113.167969 61.058594 113.964844 61.21875 114.753906 C 61.375 115.546875 61.570312 116.328125 61.804688 117.097656 C 62.039062 117.871094 62.3125 118.628906 62.621094 119.371094 C 62.929688 120.117188 63.273438 120.84375 63.652344 121.554688 C 64.035156 122.265625 64.449219 122.957031 64.898438 123.628906 C 65.34375 124.300781 65.824219 124.945312 66.335938 125.570312 C 66.847656 126.191406 67.390625 126.789062 67.960938 127.359375 C 68.53125 127.929688 69.128906 128.46875 69.753906 128.980469 C 70.375 129.492188 71.023438 129.972656 71.695312 130.421875 C 72.363281 130.867188 73.054688 131.28125 73.769531 131.664062 C 74.480469 132.042969 75.207031 132.386719 75.953125 132.695312 C 76.699219 133.003906 77.457031 133.273438 78.230469 133.507812 C 79.003906 133.742188 79.785156 133.9375 80.574219 134.097656 C 81.367188 134.253906 82.164062 134.371094 82.96875 134.449219 C 83.769531 134.53125 84.574219 134.570312 85.382812 134.570312 C 86.1875 134.570312 86.992188 134.53125 87.796875 134.449219 C 88.601562 134.371094 89.398438 134.253906 90.1875 134.097656 C 90.980469 133.9375 91.761719 133.742188 92.535156 133.507812 C 93.304688 133.273438 94.066406 133.003906 94.808594 132.695312 C 95.554688 132.386719 96.285156 132.042969 96.996094 131.664062 C 97.707031 131.28125 98.398438 130.867188 99.070312 130.421875 C 99.742188 129.972656 100.386719 129.492188 101.011719 128.980469 C 101.636719 128.46875 102.234375 127.929688 102.804688 127.359375 C 103.375 126.789062 103.914062 126.191406 104.425781 125.570312 C 104.9375 124.945312 105.417969 124.300781 105.867188 123.628906 C 106.316406 122.957031 106.730469 122.265625 107.109375 121.554688 C 107.492188 120.84375 107.835938 120.117188 108.144531 119.371094 C 108.453125 118.628906 108.722656 117.871094 108.957031 117.097656 C 109.191406 116.328125 109.386719 115.546875 109.546875 114.753906 C 109.703125 113.964844 109.820312 113.167969 109.902344 112.363281 C 109.980469 111.5625 110.019531 110.757812 110.019531 109.953125 Z M 77.167969 109.953125 C 77.167969 109.414062 77.222656 108.878906 77.328125 108.351562 C 77.433594 107.824219 77.589844 107.308594 77.792969 106.8125 C 78 106.3125 78.253906 105.839844 78.554688 105.394531 C 78.851562 104.945312 79.195312 104.53125 79.574219 104.148438 C 79.957031 103.769531 80.371094 103.429688 80.820312 103.128906 C 81.269531 102.828125 81.742188 102.578125 82.238281 102.371094 C 82.738281 102.164062 83.25 102.007812 83.78125 101.902344 C 84.308594 101.796875 84.84375 101.746094 85.382812 101.746094 C 85.921875 101.746094 86.457031 101.796875 86.984375 101.902344 C 87.511719 102.007812 88.027344 102.164062 88.523438 102.371094 C 89.023438 102.578125 89.496094 102.828125 89.945312 103.128906 C 90.394531 103.429688 90.808594 103.769531 91.1875 104.148438 C 91.570312 104.53125 91.910156 104.945312 92.210938 105.394531 C 92.511719 105.839844 92.761719 106.3125 92.96875 106.8125 C 93.175781 107.308594 93.332031 107.824219 93.4375 108.351562 C 93.542969 108.878906 93.59375 109.414062 93.59375 109.953125 C 93.59375 110.492188 93.542969 111.023438 93.4375 111.550781 C 93.332031 112.082031 93.175781 112.59375 92.96875 113.09375 C 92.761719 113.589844 92.511719 114.0625 92.210938 114.511719 C 91.910156 114.957031 91.570312 115.375 91.1875 115.753906 C 90.808594 116.136719 90.394531 116.476562 89.945312 116.773438 C 89.496094 117.074219 89.023438 117.328125 88.523438 117.53125 C 88.027344 117.738281 87.511719 117.894531 86.984375 118 C 86.457031 118.105469 85.921875 118.15625 85.382812 118.15625 C 84.84375 118.15625 84.308594 118.105469 83.78125 118 C 83.25 117.894531 82.738281 117.738281 82.238281 117.53125 C 81.742188 117.328125 81.269531 117.074219 80.820312 116.773438 C 80.371094 116.476562 79.957031 116.136719 79.574219 115.753906 C 79.195312 115.375 78.851562 114.957031 78.554688 114.511719 C 78.253906 114.0625 78 113.589844 77.792969 113.09375 C 77.589844 112.59375 77.433594 112.082031 77.328125 111.550781 C 77.222656 111.023438 77.167969 110.492188 77.167969 109.953125 Z M 331.757812 101.746094 L 257.84375 101.746094 L 257.84375 77.128906 C 257.84375 76.320312 257.804688 75.519531 257.726562 74.714844 C 257.648438 73.914062 257.527344 73.117188 257.371094 72.324219 C 257.214844 71.535156 257.019531 70.753906 256.785156 69.980469 C 256.550781 69.210938 256.277344 68.453125 255.96875 67.707031 C 255.660156 66.960938 255.316406 66.234375 254.933594 65.523438 C 254.554688 64.8125 254.140625 64.121094 253.691406 63.453125 C 253.242188 62.78125 252.765625 62.132812 252.253906 61.511719 C 251.738281 60.886719 251.199219 60.292969 250.628906 59.722656 C 250.058594 59.152344 249.460938 58.609375 248.835938 58.097656 C 248.214844 57.585938 247.566406 57.105469 246.894531 56.660156 C 246.222656 56.210938 245.53125 55.796875 244.820312 55.417969 C 244.109375 55.039062 243.378906 54.691406 242.636719 54.382812 C 241.890625 54.074219 241.132812 53.804688 240.359375 53.570312 C 239.585938 53.335938 238.804688 53.140625 238.011719 52.984375 C 237.222656 52.828125 236.425781 52.707031 235.621094 52.628906 C 234.820312 52.550781 234.015625 52.511719 233.207031 52.511719 L 52.53125 52.511719 C 51.726562 52.511719 50.921875 52.550781 50.117188 52.628906 C 49.3125 52.707031 48.515625 52.828125 47.726562 52.984375 C 46.933594 53.140625 46.152344 53.335938 45.378906 53.570312 C 44.609375 53.804688 43.847656 54.074219 43.105469 54.382812 C 42.359375 54.691406 41.628906 55.039062 40.917969 55.417969 C 40.207031 55.796875 39.515625 56.210938 38.84375 56.660156 C 38.171875 57.105469 37.527344 57.585938 36.902344 58.097656 C 36.277344 58.609375 35.679688 59.152344 35.109375 59.722656 C 34.539062 60.292969 34 60.886719 33.488281 61.511719 C 32.976562 62.132812 32.496094 62.78125 32.046875 63.453125 C 31.597656 64.121094 31.183594 64.8125 30.804688 65.523438 C 30.421875 66.234375 30.078125 66.960938 29.769531 67.707031 C 29.460938 68.453125 29.191406 69.210938 28.957031 69.980469 C 28.722656 70.753906 28.523438 71.535156 28.367188 72.324219 C 28.210938 73.117188 28.09375 73.914062 28.011719 74.714844 C 27.933594 75.519531 27.894531 76.320312 27.894531 77.128906 L 27.894531 101.746094 C 27.894531 102.285156 27.945312 102.816406 28.050781 103.347656 C 28.15625 103.875 28.3125 104.386719 28.519531 104.886719 C 28.726562 105.382812 28.980469 105.855469 29.277344 106.304688 C 29.578125 106.753906 29.917969 107.167969 30.300781 107.546875 C 30.679688 107.929688 31.097656 108.269531 31.542969 108.570312 C 31.992188 108.867188 32.464844 109.121094 32.964844 109.328125 C 33.460938 109.535156 33.976562 109.6875 34.503906 109.792969 C 35.035156 109.898438 35.566406 109.953125 36.105469 109.953125 C 36.644531 109.953125 37.179688 109.898438 37.710938 109.792969 C 38.238281 109.6875 38.75 109.535156 39.25 109.328125 C 39.746094 109.121094 40.222656 108.867188 40.667969 108.570312 C 41.117188 108.269531 41.53125 107.929688 41.914062 107.546875 C 42.296875 107.167969 42.636719 106.753906 42.933594 106.304688 C 43.234375 105.855469 43.488281 105.382812 43.695312 104.886719 C 43.902344 104.386719 44.054688 103.875 44.160156 103.347656 C 44.265625 102.816406 44.320312 102.285156 44.320312 101.746094 L 44.320312 77.128906 C 44.320312 76.589844 44.371094 76.054688 44.476562 75.527344 C 44.582031 75 44.738281 74.484375 44.945312 73.988281 C 45.152344 73.488281 45.402344 73.015625 45.703125 72.570312 C 46.003906 72.121094 46.34375 71.707031 46.726562 71.324219 C 47.105469 70.945312 47.519531 70.605469 47.96875 70.304688 C 48.417969 70.007812 48.890625 69.753906 49.390625 69.546875 C 49.886719 69.339844 50.402344 69.183594 50.929688 69.078125 C 51.457031 68.976562 51.992188 68.921875 52.53125 68.921875 L 233.207031 68.921875 C 233.746094 68.921875 234.28125 68.976562 234.808594 69.078125 C 235.339844 69.183594 235.851562 69.339844 236.351562 69.546875 C 236.847656 69.753906 237.320312 70.007812 237.769531 70.304688 C 238.21875 70.605469 238.632812 70.945312 239.015625 71.324219 C 239.394531 71.707031 239.734375 72.121094 240.035156 72.570312 C 240.335938 73.015625 240.585938 73.488281 240.792969 73.988281 C 241 74.484375 241.15625 75 241.261719 75.527344 C 241.367188 76.054688 241.417969 76.589844 241.417969 77.128906 L 241.417969 101.746094 L 151.082031 101.746094 C 150.273438 101.746094 149.46875 101.785156 148.667969 101.863281 C 147.863281 101.945312 147.066406 102.0625 146.277344 102.21875 C 145.484375 102.375 144.703125 102.570312 143.929688 102.804688 C 143.15625 103.039062 142.398438 103.3125 141.652344 103.621094 C 140.90625 103.929688 140.179688 104.273438 139.46875 104.652344 C 138.757812 105.03125 138.066406 105.445312 137.394531 105.894531 C 136.722656 106.34375 136.074219 106.820312 135.453125 107.332031 C 134.828125 107.84375 134.230469 108.386719 133.660156 108.957031 C 133.089844 109.527344 132.546875 110.121094 132.035156 110.746094 C 131.523438 111.371094 131.042969 112.015625 130.597656 112.6875 C 130.148438 113.355469 129.734375 114.046875 129.355469 114.757812 C 128.972656 115.46875 128.628906 116.199219 128.320312 116.941406 C 128.011719 117.6875 127.738281 118.445312 127.503906 119.21875 C 127.269531 119.988281 127.074219 120.769531 126.917969 121.5625 C 126.761719 122.351562 126.640625 123.148438 126.5625 123.949219 C 126.484375 124.753906 126.445312 125.558594 126.445312 126.363281 L 126.445312 149.09375 C 124.527344 148.304688 122.542969 147.765625 120.492188 147.476562 C 118.4375 147.1875 116.382812 147.15625 114.324219 147.386719 C 112.261719 147.617188 110.261719 148.097656 108.324219 148.832031 C 106.386719 149.566406 104.570312 150.527344 102.875 151.71875 L 44.320312 192.667969 L 44.320312 134.570312 C 44.320312 134.03125 44.265625 133.496094 44.160156 132.96875 C 44.054688 132.441406 43.902344 131.925781 43.695312 131.429688 C 43.488281 130.929688 43.234375 130.457031 42.933594 130.011719 C 42.636719 129.5625 42.296875 129.148438 41.914062 128.765625 C 41.53125 128.386719 41.117188 128.046875 40.667969 127.746094 C 40.222656 127.445312 39.746094 127.195312 39.25 126.988281 C 38.75 126.78125 38.238281 126.625 37.710938 126.519531 C 37.179688 126.414062 36.644531 126.363281 36.105469 126.363281 C 35.566406 126.363281 35.035156 126.414062 34.503906 126.519531 C 33.976562 126.625 33.460938 126.78125 32.964844 126.988281 C 32.464844 127.195312 31.992188 127.445312 31.542969 127.746094 C 31.097656 128.046875 30.679688 128.386719 30.300781 128.765625 C 29.917969 129.148438 29.578125 129.5625 29.277344 130.011719 C 28.980469 130.457031 28.726562 130.929688 28.519531 131.429688 C 28.3125 131.925781 28.15625 132.441406 28.050781 132.96875 C 27.945312 133.496094 27.894531 134.03125 27.894531 134.570312 L 27.894531 257.65625 C 27.894531 258.464844 27.933594 259.269531 28.011719 260.070312 C 28.09375 260.871094 28.210938 261.667969 28.367188 262.460938 C 28.523438 263.25 28.722656 264.03125 28.957031 264.804688 C 29.191406 265.574219 29.460938 266.332031 29.769531 267.078125 C 30.078125 267.824219 30.421875 268.550781 30.804688 269.261719 C 31.183594 269.972656 31.597656 270.664062 32.046875 271.335938 C 32.496094 272.003906 32.976562 272.652344 33.488281 273.273438 C 34 273.898438 34.539062 274.496094 35.109375 275.066406 C 35.679688 275.632812 36.277344 276.175781 36.902344 276.6875 C 37.527344 277.199219 38.171875 277.679688 38.84375 278.125 C 39.515625 278.574219 40.207031 278.988281 40.917969 279.367188 C 41.628906 279.75 42.359375 280.09375 43.105469 280.402344 C 43.847656 280.710938 44.609375 280.980469 45.378906 281.214844 C 46.152344 281.449219 46.933594 281.644531 47.726562 281.800781 C 48.515625 281.960938 49.3125 282.078125 50.117188 282.15625 C 50.921875 282.234375 51.726562 282.273438 52.53125 282.273438 L 126.445312 282.273438 L 126.445312 306.890625 C 126.445312 307.699219 126.484375 308.503906 126.5625 309.304688 C 126.640625 310.109375 126.761719 310.902344 126.917969 311.695312 C 127.074219 312.484375 127.269531 313.265625 127.503906 314.039062 C 127.738281 314.808594 128.011719 315.566406 128.320312 316.3125 C 128.628906 317.058594 128.972656 317.785156 129.355469 318.496094 C 129.734375 319.207031 130.148438 319.898438 130.597656 320.570312 C 131.042969 321.238281 131.523438 321.886719 132.035156 322.507812 C 132.546875 323.132812 133.089844 323.730469 133.660156 324.300781 C 134.230469 324.871094 134.828125 325.410156 135.453125 325.921875 C 136.074219 326.433594 136.722656 326.914062 137.394531 327.359375 C 138.066406 327.808594 138.757812 328.222656 139.46875 328.601562 C 140.179688 328.984375 140.90625 329.328125 141.652344 329.636719 C 142.398438 329.945312 143.15625 330.214844 143.929688 330.449219 C 144.703125 330.683594 145.484375 330.878906 146.277344 331.035156 C 147.066406 331.195312 147.863281 331.3125 148.667969 331.390625 C 149.46875 331.46875 150.273438 331.511719 151.082031 331.511719 L 331.757812 331.511719 C 332.5625 331.511719 333.367188 331.46875 334.171875 331.390625 C 334.976562 331.3125 335.773438 331.195312 336.5625 331.035156 C 337.355469 330.878906 338.136719 330.683594 338.910156 330.449219 C 339.679688 330.214844 340.441406 329.945312 341.183594 329.636719 C 341.929688 329.328125 342.660156 328.984375 343.371094 328.601562 C 344.082031 328.222656 344.773438 327.808594 345.445312 327.359375 C 346.117188 326.914062 346.761719 326.433594 347.386719 325.921875 C 348.011719 325.410156 348.609375 324.871094 349.179688 324.300781 C 349.75 323.730469 350.289062 323.132812 350.800781 322.507812 C 351.3125 321.886719 351.792969 321.238281 352.242188 320.570312 C 352.691406 319.898438 353.105469 319.207031 353.484375 318.496094 C 353.867188 317.785156 354.210938 317.058594 354.519531 316.3125 C 354.828125 315.566406 355.097656 314.808594 355.332031 314.039062 C 355.566406 313.265625 355.761719 312.484375 355.921875 311.695312 C 356.078125 310.902344 356.195312 310.109375 356.277344 309.304688 C 356.355469 308.503906 356.394531 307.699219 356.394531 306.890625 L 356.394531 126.363281 C 356.394531 125.558594 356.355469 124.753906 356.277344 123.949219 C 356.195312 123.148438 356.078125 122.351562 355.921875 121.5625 C 355.761719 120.769531 355.566406 119.988281 355.332031 119.21875 C 355.097656 118.445312 354.828125 117.6875 354.519531 116.941406 C 354.210938 116.199219 353.867188 115.46875 353.484375 114.757812 C 353.105469 114.046875 352.691406 113.355469 352.242188 112.6875 C 351.792969 112.015625 351.3125 111.371094 350.800781 110.746094 C 350.289062 110.121094 349.75 109.527344 349.179688 108.957031 C 348.609375 108.386719 348.011719 107.84375 347.386719 107.332031 C 346.761719 106.820312 346.117188 106.34375 345.445312 105.894531 C 344.773438 105.445312 344.082031 105.03125 343.371094 104.652344 C 342.660156 104.273438 341.929688 103.929688 341.183594 103.621094 C 340.441406 103.3125 339.679688 103.039062 338.910156 102.804688 C 338.136719 102.570312 337.355469 102.375 336.5625 102.21875 C 335.773438 102.0625 334.976562 101.945312 334.171875 101.863281 C 333.367188 101.785156 332.5625 101.746094 331.757812 101.746094 Z M 112.320312 165.175781 C 112.695312 164.914062 113.089844 164.679688 113.503906 164.484375 C 113.917969 164.285156 114.347656 164.121094 114.789062 163.996094 C 115.230469 163.871094 115.679688 163.78125 116.136719 163.730469 C 116.59375 163.679688 117.050781 163.667969 117.511719 163.691406 C 117.96875 163.71875 118.421875 163.78125 118.871094 163.886719 C 119.320312 163.988281 119.757812 164.125 120.179688 164.300781 C 120.605469 164.476562 121.011719 164.683594 121.402344 164.929688 C 121.792969 165.171875 122.160156 165.445312 122.503906 165.75 L 126.445312 169.28125 L 126.445312 233.039062 L 44.320312 233.039062 L 44.320312 212.6875 Z M 52.53125 265.863281 C 51.992188 265.863281 51.457031 265.808594 50.929688 265.707031 C 50.402344 265.601562 49.886719 265.445312 49.390625 265.238281 C 48.890625 265.03125 48.417969 264.78125 47.96875 264.480469 C 47.519531 264.179688 47.105469 263.839844 46.726562 263.460938 C 46.34375 263.078125 46.003906 262.664062 45.703125 262.214844 C 45.402344 261.769531 45.152344 261.296875 44.945312 260.796875 C 44.738281 260.300781 44.582031 259.785156 44.476562 259.257812 C 44.371094 258.730469 44.320312 258.195312 44.320312 257.65625 L 44.320312 249.453125 L 126.445312 249.453125 L 126.445312 265.863281 Z M 331.757812 315.097656 L 151.082031 315.097656 C 150.542969 315.097656 150.007812 315.046875 149.480469 314.941406 C 148.949219 314.835938 148.4375 314.679688 147.9375 314.472656 C 147.441406 314.265625 146.96875 314.015625 146.519531 313.714844 C 146.070312 313.414062 145.65625 313.074219 145.273438 312.695312 C 144.894531 312.3125 144.554688 311.898438 144.253906 311.453125 C 143.953125 311.003906 143.699219 310.53125 143.496094 310.03125 C 143.289062 309.535156 143.132812 309.023438 143.027344 308.492188 C 142.921875 307.964844 142.871094 307.429688 142.871094 306.890625 L 142.871094 298.6875 L 167.507812 298.6875 C 168.046875 298.6875 168.582031 298.632812 169.109375 298.527344 C 169.636719 298.421875 170.152344 298.269531 170.648438 298.0625 C 171.148438 297.855469 171.621094 297.601562 172.070312 297.304688 C 172.519531 297.003906 172.933594 296.664062 173.3125 296.28125 C 173.695312 295.902344 174.035156 295.488281 174.335938 295.039062 C 174.636719 294.589844 174.886719 294.117188 175.09375 293.621094 C 175.300781 293.125 175.457031 292.609375 175.5625 292.082031 C 175.667969 291.554688 175.71875 291.019531 175.71875 290.480469 C 175.71875 289.941406 175.667969 289.410156 175.5625 288.878906 C 175.457031 288.351562 175.300781 287.839844 175.09375 287.339844 C 174.886719 286.84375 174.636719 286.371094 174.335938 285.921875 C 174.035156 285.472656 173.695312 285.058594 173.3125 284.679688 C 172.933594 284.296875 172.519531 283.957031 172.070312 283.65625 C 171.621094 283.359375 171.148438 283.105469 170.648438 282.898438 C 170.152344 282.691406 169.636719 282.539062 169.109375 282.433594 C 168.582031 282.328125 168.046875 282.273438 167.507812 282.273438 L 142.871094 282.273438 L 142.871094 126.363281 C 142.871094 125.824219 142.921875 125.289062 143.027344 124.761719 C 143.132812 124.234375 143.289062 123.722656 143.496094 123.222656 C 143.699219 122.726562 143.953125 122.253906 144.253906 121.804688 C 144.554688 121.355469 144.894531 120.941406 145.273438 120.5625 C 145.65625 120.179688 146.070312 119.839844 146.519531 119.539062 C 146.96875 119.242188 147.441406 118.988281 147.9375 118.78125 C 148.4375 118.574219 148.949219 118.421875 149.480469 118.316406 C 150.007812 118.210938 150.542969 118.15625 151.082031 118.15625 L 331.757812 118.15625 C 332.296875 118.15625 332.832031 118.210938 333.359375 118.316406 C 333.886719 118.421875 334.402344 118.574219 334.898438 118.78125 C 335.398438 118.988281 335.871094 119.242188 336.320312 119.539062 C 336.769531 119.839844 337.183594 120.179688 337.5625 120.5625 C 337.945312 120.941406 338.285156 121.355469 338.585938 121.804688 C 338.886719 122.253906 339.136719 122.726562 339.34375 123.222656 C 339.550781 123.722656 339.707031 124.234375 339.8125 124.761719 C 339.917969 125.289062 339.96875 125.824219 339.96875 126.363281 L 339.96875 282.273438 L 200.355469 282.273438 C 199.816406 282.273438 199.285156 282.328125 198.753906 282.433594 C 198.226562 282.539062 197.710938 282.691406 197.214844 282.898438 C 196.714844 283.105469 196.242188 283.359375 195.792969 283.65625 C 195.347656 283.957031 194.929688 284.296875 194.550781 284.679688 C 194.167969 285.058594 193.828125 285.472656 193.527344 285.921875 C 193.230469 286.371094 192.976562 286.84375 192.769531 287.339844 C 192.5625 287.839844 192.40625 288.351562 192.300781 288.878906 C 192.195312 289.410156 192.144531 289.941406 192.144531 290.480469 C 192.144531 291.019531 192.195312 291.554688 192.300781 292.082031 C 192.40625 292.609375 192.5625 293.125 192.769531 293.621094 C 192.976562 294.117188 193.230469 294.589844 193.527344 295.039062 C 193.828125 295.488281 194.167969 295.902344 194.550781 296.28125 C 194.929688 296.664062 195.347656 297.003906 195.792969 297.304688 C 196.242188 297.601562 196.714844 297.855469 197.214844 298.0625 C 197.710938 298.269531 198.226562 298.421875 198.753906 298.527344 C 199.285156 298.632812 199.816406 298.6875 200.355469 298.6875 L 339.96875 298.6875 L 339.96875 306.890625 C 339.96875 307.429688 339.917969 307.964844 339.8125 308.492188 C 339.707031 309.023438 339.550781 309.535156 339.34375 310.03125 C 339.136719 310.53125 338.886719 311.003906 338.585938 311.453125 C 338.285156 311.898438 337.945312 312.3125 337.5625 312.695312 C 337.183594 313.074219 336.769531 313.414062 336.320312 313.714844 C 335.871094 314.015625 335.398438 314.265625 334.898438 314.472656 C 334.402344 314.679688 333.886719 314.835938 333.359375 314.941406 C 332.832031 315.046875 332.296875 315.097656 331.757812 315.097656 Z M 208.570312 249.453125 C 211.101562 250.953125 213.839844 251.71875 216.78125 251.75 C 219.503906 251.730469 222.078125 251.097656 224.5 249.863281 L 290.203125 214.90625 C 291.515625 214.203125 292.710938 213.34375 293.792969 212.316406 C 294.871094 211.292969 295.792969 210.144531 296.558594 208.867188 C 297.324219 207.589844 297.90625 206.238281 298.304688 204.804688 C 298.703125 203.371094 298.902344 201.910156 298.902344 200.421875 C 298.902344 198.933594 298.703125 197.472656 298.304688 196.039062 C 297.90625 194.605469 297.324219 193.25 296.558594 191.976562 C 295.792969 190.699219 294.871094 189.550781 293.792969 188.523438 C 292.710938 187.5 291.515625 186.636719 290.203125 185.9375 L 224.5 151.0625 C 223.878906 150.730469 223.238281 150.441406 222.578125 150.195312 C 221.917969 149.945312 221.246094 149.738281 220.558594 149.578125 C 219.875 149.414062 219.179688 149.296875 218.480469 149.226562 C 217.777344 149.152344 217.074219 149.125 216.371094 149.140625 C 215.664062 149.160156 214.964844 149.222656 214.269531 149.332031 C 213.570312 149.4375 212.882812 149.589844 212.207031 149.785156 C 211.53125 149.984375 210.867188 150.222656 210.222656 150.503906 C 209.574219 150.785156 208.949219 151.105469 208.34375 151.46875 C 207.742188 151.828125 207.160156 152.230469 206.609375 152.664062 C 206.054688 153.101562 205.53125 153.570312 205.039062 154.074219 C 204.546875 154.578125 204.085938 155.113281 203.664062 155.675781 C 203.238281 156.238281 202.851562 156.824219 202.503906 157.4375 C 202.15625 158.050781 201.847656 158.679688 201.582031 159.332031 C 201.3125 159.984375 201.089844 160.652344 200.910156 161.332031 C 200.726562 162.011719 200.589844 162.703125 200.5 163.402344 C 200.40625 164.097656 200.359375 164.800781 200.355469 165.503906 L 200.355469 235.335938 C 200.367188 236.769531 200.558594 238.175781 200.9375 239.558594 C 201.3125 240.9375 201.863281 242.25 202.582031 243.488281 C 203.300781 244.726562 204.171875 245.851562 205.183594 246.859375 C 206.199219 247.871094 207.328125 248.734375 208.570312 249.453125 Z M 216.78125 165.503906 L 282.480469 200.214844 L 216.78125 235.089844 Z M 216.78125 165.503906 " fill-opacity="1" fill-rule="nonzero"/></g></svg>