<svg xmlns="http://www.w3.org/2000/svg" xmlns:xlink="http://www.w3.org/1999/xlink" width="512" zoomAndPan="magnify" viewBox="0 0 384 383.999986" height="512" preserveAspectRatio="xMidYMid meet" version="1.0"><defs><clipPath id="b65ceca2e1"><path d="M 38.398438 38.398438 L 345.617188 38.398438 L 345.617188 345.5625 L 38.398438 345.5625 Z M 38.398438 38.398438 " clip-rule="nonzero"/></clipPath></defs><g clip-path="url(#b65ceca2e1)"><path fill="#ffffff" d="M 242.789062 52.984375 C 290.097656 52.984375 328.433594 91.34375 328.433594 138.652344 C 328.433594 139.472656 328.433594 140.320312 328.40625 141.144531 C 329.800781 188.421875 292.617188 227.90625 245.308594 229.300781 C 198.027344 230.695312 158.570312 193.511719 157.148438 146.230469 C 157.09375 144.535156 157.09375 142.839844 157.148438 141.144531 C 155.78125 93.863281 192.964844 54.40625 240.273438 53.011719 C 241.09375 52.984375 241.941406 52.984375 242.789062 52.984375 Z M 237.921875 38.535156 C 181.253906 41.273438 137.53125 89.402344 140.265625 146.066406 C 141.144531 164.261719 146.832031 181.910156 156.792969 197.179688 C 157.503906 198.300781 157.367188 199.75 156.4375 200.707031 L 129.1875 227.851562 L 126.039062 224.757812 C 122.699219 221.449219 117.3125 221.449219 113.972656 224.757812 L 46.71875 292.152344 C 34.84375 305.175781 35.800781 325.367188 48.824219 337.242188 C 61 348.296875 79.578125 348.324219 91.753906 337.269531 L 159.203125 269.878906 C 162.539062 266.539062 162.539062 261.148438 159.203125 257.839844 L 156.054688 254.746094 L 183.308594 227.578125 C 184.238281 226.648438 185.714844 226.484375 186.808594 227.222656 C 234.363281 258.167969 297.980469 244.707031 328.925781 197.179688 C 359.898438 149.652344 346.4375 86.007812 298.910156 55.0625 C 280.824219 43.296875 259.480469 37.496094 237.949219 38.535156 L 237.921875 38.535156 " fill-opacity="1" fill-rule="nonzero"/></g><path fill="#ffffff" d="M 296.144531 93.289062 C 274.476562 106.230469 255.15625 122.699219 238.878906 142.019531 C 238.222656 142.867188 236.933594 143.003906 236.085938 142.320312 L 215.730469 127.023438 C 214.992188 126.503906 214.007812 126.53125 213.324219 127.105469 L 203.308594 135.835938 C 202.433594 136.492188 202.269531 137.722656 202.953125 138.597656 C 202.980469 138.652344 203.035156 138.679688 203.0625 138.734375 L 242.707031 177.5625 C 243.476562 178.328125 244.761719 178.300781 245.5 177.535156 C 245.664062 177.371094 245.746094 177.207031 245.855469 177.011719 C 259.863281 148.503906 278.742188 122.671875 301.644531 100.675781 C 302.382812 99.992188 302.519531 98.867188 301.917969 98.046875 L 298.746094 93.78125 C 298.171875 92.984375 297.046875 92.765625 296.171875 93.289062 L 296.144531 93.289062 " fill-opacity="1" fill-rule="nonzero"/><path fill="#ffffff" d="M 268.347656 96.378906 L 270.207031 92.929688 C 243.585938 77.773438 209.710938 87.078125 194.578125 113.726562 C 179.421875 140.347656 188.722656 174.222656 215.347656 189.355469 C 241.996094 204.511719 275.84375 195.210938 291 168.585938 C 297.980469 156.328125 300.03125 141.855469 296.71875 128.144531 L 292.808594 129.074219 C 299.429688 156.765625 282.355469 184.539062 254.691406 191.160156 C 227.003906 197.753906 199.230469 180.707031 192.609375 153.015625 C 185.988281 125.355469 203.089844 97.554688 230.75 90.933594 C 243.503906 87.898438 256.964844 89.839844 268.347656 96.378906 " fill-opacity="1" fill-rule="nonzero"/></svg>