<svg xmlns="http://www.w3.org/2000/svg" xmlns:xlink="http://www.w3.org/1999/xlink" width="512" zoomAndPan="magnify" viewBox="0 0 384 383.999986" height="512" preserveAspectRatio="xMidYMid meet" version="1.0"><defs><clipPath id="4950c640ef"><path d="M 44.660156 44.660156 L 339.410156 44.660156 L 339.410156 339.410156 L 44.660156 339.410156 Z M 44.660156 44.660156 " clip-rule="nonzero"/></clipPath></defs><g clip-path="url(#4950c640ef)"><path fill="#e9ab17" d="M 192.035156 74.132812 C 126.917969 74.132812 74.132812 126.917969 74.132812 192.035156 C 74.132812 210.722656 78.472656 228.359375 86.183594 244.023438 C 88.304688 248.335938 89.074219 253.371094 88.046875 258.371094 L 78.242188 306.152344 L 127.949219 296.851562 C 132.714844 295.960938 137.488281 296.6875 141.613281 298.644531 C 156.882812 305.878906 173.964844 309.933594 192.035156 309.933594 C 257.148438 309.933594 309.933594 257.148438 309.933594 192.035156 C 309.933594 126.917969 257.148438 74.132812 192.035156 74.132812 Z M 44.660156 192.035156 C 44.660156 110.640625 110.640625 44.660156 192.035156 44.660156 C 273.425781 44.660156 339.410156 110.640625 339.410156 192.035156 C 339.410156 273.425781 273.425781 339.410156 192.035156 339.410156 C 170.324219 339.410156 149.675781 334.707031 131.085938 326.25 L 72.882812 337.140625 C 57.449219 340.027344 44.007812 326.351562 47.164062 310.964844 L 58.679688 254.847656 C 49.683594 235.777344 44.660156 214.472656 44.660156 192.035156 Z M 44.660156 192.035156 " fill-opacity="1" fill-rule="evenodd"/></g><path fill="#e9ab17" d="M 184.664062 125.714844 C 176.523438 125.714844 169.925781 132.3125 169.925781 140.453125 L 169.925781 155.191406 L 140.453125 155.191406 L 140.453125 140.453125 C 140.453125 116.035156 160.246094 96.238281 184.664062 96.238281 L 199.402344 96.238281 C 223.820312 96.238281 243.613281 116.035156 243.613281 140.453125 L 243.613281 157.71875 C 243.613281 169.445312 238.957031 180.691406 230.664062 188.980469 L 211.085938 208.558594 C 208.324219 211.324219 206.769531 215.070312 206.769531 218.980469 L 206.769531 243.613281 L 177.296875 243.613281 L 177.296875 218.980469 C 177.296875 207.253906 181.953125 196.007812 190.246094 187.714844 L 209.824219 168.140625 C 212.585938 165.375 214.140625 161.625 214.140625 157.71875 L 214.140625 140.453125 C 214.140625 132.3125 207.542969 125.714844 199.402344 125.714844 Z M 184.664062 125.714844 " fill-opacity="1" fill-rule="evenodd"/><path fill="#e9ab17" d="M 177.296875 258.351562 L 206.769531 258.351562 L 206.769531 287.828125 L 177.296875 287.828125 Z M 177.296875 258.351562 " fill-opacity="1" fill-rule="evenodd"/></svg>