<svg xmlns="http://www.w3.org/2000/svg" xmlns:xlink="http://www.w3.org/1999/xlink" width="512" zoomAndPan="magnify" viewBox="0 0 384 383.999986" height="512" preserveAspectRatio="xMidYMid meet" version="1.0"><path fill="#ffffff" d="M 187.929688 368.894531 L 92.8125 368.894531 C 91.597656 368.894531 90.394531 368.808594 89.191406 368.632812 C 87.992188 368.457031 86.8125 368.199219 85.648438 367.851562 C 84.484375 367.503906 83.355469 367.078125 82.253906 366.566406 C 81.152344 366.054688 80.09375 365.46875 79.078125 364.804688 C 78.0625 364.140625 77.101562 363.410156 76.191406 362.605469 C 75.28125 361.800781 74.4375 360.9375 73.652344 360.011719 C 72.867188 359.085938 72.15625 358.109375 71.511719 357.078125 C 70.871094 356.050781 70.304688 354.980469 69.816406 353.867188 C 69.328125 352.757812 68.925781 351.617188 68.601562 350.445312 C 68.28125 349.273438 68.046875 348.089844 67.894531 346.882812 C 67.746094 345.679688 67.683594 344.46875 67.707031 343.257812 C 67.734375 342.042969 67.84375 340.839844 68.042969 339.640625 C 68.246094 338.445312 68.53125 337.269531 68.898438 336.113281 C 69.269531 334.957031 69.722656 333.832031 70.253906 332.742188 C 70.785156 331.652344 71.394531 330.605469 72.078125 329.605469 C 72.765625 328.601562 73.515625 327.65625 74.339844 326.761719 L 112.234375 285.25 C 114.191406 283.132812 116.316406 281.195312 118.605469 279.445312 C 120.894531 277.691406 123.316406 276.148438 125.871094 274.8125 C 128.425781 273.476562 131.074219 272.367188 133.820312 271.484375 C 136.5625 270.605469 139.363281 269.960938 142.21875 269.5625 C 146.941406 268.914062 151.660156 268.945312 156.371094 269.652344 C 161.085938 270.363281 165.605469 271.722656 169.929688 273.730469 L 198.253906 286.8125 C 201.910156 288.507812 205.308594 290.617188 208.457031 293.132812 C 211.605469 295.648438 214.410156 298.5 216.871094 301.691406 C 217.882812 302.980469 218.816406 304.320312 219.664062 305.722656 C 220.601562 307.261719 221.417969 308.867188 222.113281 310.53125 C 222.8125 312.195312 223.378906 313.902344 223.820312 315.652344 C 224.257812 317.402344 224.566406 319.171875 224.738281 320.96875 C 224.914062 322.765625 224.949219 324.5625 224.855469 326.367188 C 224.757812 328.167969 224.527344 329.953125 224.164062 331.71875 C 223.796875 333.484375 223.304688 335.214844 222.679688 336.90625 C 222.054688 338.601562 221.308594 340.238281 220.4375 341.816406 C 219.566406 343.398438 218.582031 344.902344 217.484375 346.335938 L 208.011719 358.988281 C 206.832031 360.53125 205.488281 361.917969 203.988281 363.148438 C 202.488281 364.382812 200.867188 365.425781 199.125 366.285156 C 197.382812 367.144531 195.566406 367.792969 193.675781 368.234375 C 191.785156 368.675781 189.871094 368.894531 187.929688 368.894531 Z M 149.324219 276.195312 C 147.339844 276.195312 145.367188 276.339844 143.402344 276.621094 C 140.953125 276.957031 138.554688 277.5 136.199219 278.253906 C 133.847656 279.003906 131.574219 279.957031 129.386719 281.101562 C 127.199219 282.25 125.125 283.578125 123.167969 285.085938 C 121.210938 286.59375 119.398438 288.257812 117.726562 290.082031 L 79.832031 331.550781 C 79.246094 332.191406 78.710938 332.871094 78.222656 333.59375 C 77.734375 334.3125 77.300781 335.0625 76.921875 335.84375 C 76.542969 336.628906 76.21875 337.433594 75.957031 338.261719 C 75.695312 339.089844 75.492188 339.933594 75.351562 340.792969 C 75.207031 341.648438 75.128906 342.515625 75.113281 343.382812 C 75.097656 344.253906 75.140625 345.121094 75.25 345.980469 C 75.359375 346.84375 75.527344 347.695312 75.761719 348.535156 C 75.992188 349.371094 76.28125 350.1875 76.632812 350.984375 C 76.980469 351.78125 77.386719 352.550781 77.84375 353.285156 C 78.304688 354.023438 78.816406 354.726562 79.378906 355.390625 C 79.9375 356.054688 80.542969 356.675781 81.195312 357.25 C 81.847656 357.828125 82.535156 358.351562 83.261719 358.828125 C 83.988281 359.308594 84.746094 359.730469 85.535156 360.097656 C 86.324219 360.464844 87.132812 360.773438 87.964844 361.023438 C 88.796875 361.273438 89.644531 361.460938 90.503906 361.589844 C 91.363281 361.71875 92.226562 361.78125 93.097656 361.785156 L 187.929688 361.785156 C 189.308594 361.765625 190.667969 361.589844 192.007812 361.261719 C 193.347656 360.929688 194.636719 360.453125 195.867188 359.828125 C 197.097656 359.203125 198.242188 358.449219 199.300781 357.5625 C 200.359375 356.675781 201.304688 355.683594 202.140625 354.582031 L 211.613281 341.976562 C 212.496094 340.828125 213.289062 339.621094 213.988281 338.351562 C 214.691406 337.085938 215.292969 335.773438 215.796875 334.417969 C 216.304688 333.058594 216.703125 331.671875 217 330.253906 C 217.296875 328.835938 217.488281 327.40625 217.570312 325.957031 C 217.652344 324.511719 217.625 323.070312 217.488281 321.625 C 217.355469 320.183594 217.113281 318.761719 216.765625 317.355469 C 216.417969 315.949219 215.964844 314.578125 215.410156 313.238281 C 214.859375 311.898438 214.207031 310.609375 213.460938 309.371094 C 212.703125 308.203125 211.898438 307.0625 211.042969 305.957031 C 208.941406 303.210938 206.539062 300.753906 203.839844 298.589844 C 201.140625 296.425781 198.222656 294.617188 195.082031 293.164062 L 167.132812 280.175781 C 161.488281 277.539062 155.550781 276.210938 149.324219 276.195312 Z M 149.324219 276.195312 " fill-opacity="1" fill-rule="nonzero"/><path fill="#ffffff" d="M 214.074219 307.332031 C 213.515625 307.335938 212.984375 307.214844 212.484375 306.960938 C 211.984375 306.710938 211.566406 306.363281 211.234375 305.910156 C 209.125 303.175781 206.71875 300.730469 204.019531 298.574219 C 201.320312 296.417969 198.40625 294.613281 195.269531 293.164062 L 167.132812 280.175781 C 163.441406 278.453125 159.578125 277.289062 155.546875 276.6875 C 151.519531 276.082031 147.484375 276.058594 143.449219 276.621094 C 143.097656 276.675781 142.75 276.675781 142.398438 276.621094 C 142.050781 276.566406 141.714844 276.460938 141.398438 276.304688 C 141.078125 276.148438 140.792969 275.949219 140.535156 275.703125 C 140.28125 275.457031 140.066406 275.179688 139.898438 274.871094 C 139.714844 274.566406 139.582031 274.246094 139.5 273.902344 C 139.417969 273.558594 139.386719 273.210938 139.414062 272.855469 C 139.4375 272.503906 139.515625 272.164062 139.648438 271.835938 C 139.777344 271.507812 139.957031 271.207031 140.179688 270.9375 L 155.90625 250.839844 C 156.859375 249.621094 157.660156 248.308594 158.308594 246.902344 C 158.960938 245.496094 159.441406 244.035156 159.757812 242.519531 C 160.074219 241.003906 160.214844 239.472656 160.179688 237.925781 C 160.148438 236.378906 159.9375 234.855469 159.554688 233.355469 L 146.8125 183.6875 C 146.167969 181.164062 145.757812 178.601562 145.578125 176 C 145.394531 173.402344 145.449219 170.804688 145.734375 168.214844 C 146.023438 165.625 146.539062 163.082031 147.285156 160.585938 C 148.03125 158.089844 148.996094 155.679688 150.175781 153.355469 L 169.550781 115.445312 C 170.03125 114.503906 170.613281 113.632812 171.296875 112.828125 C 171.984375 112.023438 172.75 111.308594 173.601562 110.683594 C 174.453125 110.058594 175.363281 109.539062 176.335938 109.125 C 177.308594 108.714844 178.3125 108.417969 179.355469 108.242188 C 180.332031 108.078125 181.3125 108.03125 182.300781 108.097656 C 183.289062 108.164062 184.253906 108.34375 185.199219 108.636719 C 186.144531 108.925781 187.042969 109.324219 187.898438 109.824219 C 188.75 110.328125 189.535156 110.921875 190.25 111.605469 C 191.207031 112.527344 192.0625 113.53125 192.816406 114.625 C 193.570312 115.71875 194.207031 116.875 194.726562 118.097656 C 195.25 119.316406 195.644531 120.578125 195.910156 121.878906 C 196.175781 123.179688 196.3125 124.496094 196.3125 125.824219 L 197.210938 168.476562 L 197.210938 185.25 L 203.796875 205.15625 L 273.097656 205.15625 C 273.878906 205.152344 274.648438 205.253906 275.402344 205.464844 C 276.15625 205.675781 276.867188 205.984375 277.535156 206.390625 C 278.203125 206.800781 278.804688 207.289062 279.335938 207.867188 C 279.867188 208.441406 280.308594 209.078125 280.664062 209.777344 C 281.019531 210.476562 281.269531 211.210938 281.421875 211.976562 C 281.570312 212.746094 281.613281 213.523438 281.546875 214.300781 C 281.480469 215.082031 281.308594 215.839844 281.03125 216.574219 C 280.753906 217.304688 280.382812 217.984375 279.917969 218.617188 L 216.917969 305.769531 C 216.589844 306.214844 216.179688 306.566406 215.691406 306.824219 C 215.199219 307.085938 214.675781 307.222656 214.125 307.238281 Z M 150.507812 269.136719 C 157.378906 269.324219 163.917969 270.90625 170.117188 273.875 L 198.253906 286.8125 C 204.1875 289.554688 209.378906 293.3125 213.839844 298.089844 L 274.1875 214.398438 C 274.328125 214.171875 274.398438 213.929688 274.398438 213.664062 C 274.398438 213.398438 274.328125 213.152344 274.1875 212.929688 C 274.070312 212.707031 273.90625 212.535156 273.695312 212.40625 C 273.480469 212.277344 273.25 212.214844 273.003906 212.21875 L 201.429688 212.21875 C 201.050781 212.222656 200.679688 212.164062 200.320312 212.050781 C 199.960938 211.933594 199.625 211.765625 199.320312 211.542969 C 199.011719 211.324219 198.746094 211.058594 198.527344 210.753906 C 198.304688 210.445312 198.132812 210.113281 198.019531 209.753906 L 190.484375 186.863281 C 190.414062 186.5 190.414062 186.136719 190.484375 185.773438 L 190.484375 168.332031 L 189.585938 125.679688 C 189.605469 123.980469 189.292969 122.34375 188.640625 120.769531 C 187.992188 119.199219 187.058594 117.820312 185.84375 116.628906 C 185.21875 116.011719 184.492188 115.5625 183.660156 115.277344 C 182.828125 114.996094 181.976562 114.910156 181.105469 115.015625 C 180.09375 115.1875 179.171875 115.570312 178.339844 116.167969 C 177.507812 116.769531 176.851562 117.523438 176.371094 118.429688 L 157.042969 156.34375 C 156.058594 158.285156 155.253906 160.300781 154.628906 162.386719 C 154.003906 164.472656 153.574219 166.597656 153.328125 168.761719 C 153.085938 170.925781 153.039062 173.097656 153.1875 175.269531 C 153.332031 177.441406 153.671875 179.585938 154.203125 181.699219 L 166.847656 231.363281 C 167.386719 233.386719 167.691406 235.449219 167.757812 237.542969 C 167.820312 239.636719 167.648438 241.710938 167.238281 243.761719 C 166.828125 245.816406 166.191406 247.800781 165.324219 249.707031 C 164.457031 251.613281 163.386719 253.398438 162.113281 255.058594 Z M 150.507812 269.136719 " fill-opacity="1" fill-rule="nonzero"/><path fill="#ffffff" d="M 284.039062 210.984375 L 204.507812 210.984375 C 202.769531 210.992188 201.078125 210.707031 199.4375 210.132812 C 198.933594 209.941406 198.492188 209.652344 198.117188 209.261719 C 197.746094 208.871094 197.476562 208.417969 197.308594 207.90625 L 190.296875 186.722656 C 190.226562 186.34375 190.226562 185.960938 190.296875 185.582031 L 190.296875 29.570312 C 190.296875 28.636719 190.386719 27.710938 190.570312 26.796875 C 190.75 25.882812 191.019531 24.992188 191.378906 24.128906 C 191.734375 23.265625 192.171875 22.449219 192.691406 21.671875 C 193.210938 20.894531 193.800781 20.175781 194.457031 19.515625 C 195.117188 18.855469 195.835938 18.269531 196.613281 17.75 C 197.386719 17.230469 198.207031 16.792969 199.070312 16.433594 C 199.929688 16.078125 200.820312 15.808594 201.734375 15.625 C 202.648438 15.445312 203.574219 15.351562 204.507812 15.351562 L 284.039062 15.351562 C 284.96875 15.367188 285.886719 15.472656 286.796875 15.664062 C 287.703125 15.855469 288.585938 16.132812 289.441406 16.496094 C 290.296875 16.859375 291.109375 17.300781 291.878906 17.820312 C 292.648438 18.339844 293.363281 18.925781 294.019531 19.585938 C 294.675781 20.242188 295.265625 20.957031 295.785156 21.726562 C 296.304688 22.496094 296.742188 23.308594 297.105469 24.164062 C 297.46875 25.019531 297.746094 25.902344 297.9375 26.8125 C 298.128906 27.722656 298.234375 28.640625 298.25 29.570312 L 298.25 95.019531 C 298.253906 95.398438 298.195312 95.765625 298.082031 96.128906 C 297.964844 96.488281 297.796875 96.820312 297.578125 97.128906 C 297.355469 97.433594 297.089844 97.699219 296.785156 97.921875 C 296.480469 98.144531 296.144531 98.3125 295.785156 98.429688 C 294.636719 98.773438 293.640625 99.371094 292.800781 100.230469 L 291.429688 101.984375 C 290.492188 102.910156 289.777344 103.984375 289.273438 105.199219 C 288.773438 106.417969 288.527344 107.683594 288.539062 109 C 288.542969 109.535156 288.589844 110.066406 288.679688 110.597656 C 288.773438 111.125 288.90625 111.640625 289.078125 112.148438 C 289.253906 112.65625 289.46875 113.144531 289.722656 113.617188 C 289.976562 114.089844 290.265625 114.539062 290.59375 114.964844 C 290.921875 115.390625 291.28125 115.785156 291.671875 116.152344 C 292.0625 116.519531 292.480469 116.851562 292.925781 117.148438 C 293.371094 117.449219 293.839844 117.707031 294.328125 117.929688 C 294.8125 118.152344 295.316406 118.335938 295.832031 118.476562 C 296.21875 118.566406 296.578125 118.71875 296.910156 118.929688 C 297.242188 119.144531 297.53125 119.402344 297.777344 119.714844 C 298.023438 120.023438 298.210938 120.363281 298.339844 120.738281 C 298.46875 121.109375 298.535156 121.496094 298.535156 121.890625 L 298.535156 122.742188 C 298.535156 123.132812 298.476562 123.507812 298.351562 123.878906 C 298.230469 124.246094 298.050781 124.585938 297.8125 124.894531 C 297.578125 125.203125 297.296875 125.464844 296.976562 125.679688 C 296.652344 125.898438 296.304688 126.054688 295.929688 126.15625 C 294.566406 126.570312 293.382812 127.28125 292.375 128.289062 L 291.523438 129.1875 C 290.582031 130.113281 289.855469 131.183594 289.347656 132.398438 C 288.839844 133.613281 288.585938 134.882812 288.585938 136.203125 C 288.558594 137.507812 288.792969 138.769531 289.285156 139.980469 C 289.78125 141.191406 290.496094 142.253906 291.429688 143.167969 C 292.667969 144.457031 294.152344 145.324219 295.882812 145.773438 C 296.253906 145.882812 296.597656 146.042969 296.917969 146.261719 C 297.234375 146.480469 297.511719 146.742188 297.746094 147.050781 C 297.980469 147.355469 298.164062 147.695312 298.289062 148.058594 C 298.414062 148.425781 298.480469 148.800781 298.484375 149.1875 L 298.484375 150.230469 C 298.484375 150.617188 298.421875 150.996094 298.296875 151.359375 C 298.171875 151.726562 297.992188 152.066406 297.757812 152.375 C 297.523438 152.679688 297.242188 152.945312 296.921875 153.160156 C 296.601562 153.378906 296.253906 153.539062 295.882812 153.640625 C 294.347656 154.082031 293.019531 154.871094 291.902344 156.011719 L 291.429688 156.484375 C 290.953125 156.945312 290.527344 157.449219 290.152344 158 C 289.777344 158.546875 289.464844 159.125 289.203125 159.734375 C 288.945312 160.34375 288.75 160.976562 288.621094 161.625 C 288.488281 162.273438 288.421875 162.929688 288.421875 163.59375 C 288.421875 164.257812 288.488281 164.914062 288.621094 165.5625 C 288.75 166.210938 288.945312 166.84375 289.203125 167.453125 C 289.460938 168.0625 289.777344 168.640625 290.152344 169.191406 C 290.527344 169.738281 290.953125 170.242188 291.429688 170.703125 C 292.667969 171.992188 294.152344 172.859375 295.882812 173.308594 C 296.253906 173.414062 296.597656 173.578125 296.917969 173.796875 C 297.234375 174.015625 297.511719 174.277344 297.746094 174.585938 C 297.980469 174.890625 298.164062 175.226562 298.289062 175.59375 C 298.414062 175.957031 298.480469 176.335938 298.484375 176.722656 L 298.484375 196.769531 C 298.488281 197.710938 298.394531 198.644531 298.207031 199.570312 C 298.023438 200.496094 297.746094 201.394531 297.382812 202.265625 C 297.019531 203.132812 296.570312 203.960938 296.042969 204.742188 C 295.515625 205.523438 294.914062 206.246094 294.242188 206.90625 C 293.570312 207.566406 292.835938 208.15625 292.046875 208.671875 C 291.257812 209.1875 290.425781 209.621094 289.550781 209.972656 C 288.675781 210.320312 287.773438 210.582031 286.84375 210.753906 C 285.917969 210.921875 284.980469 211 284.039062 210.984375 Z M 203.511719 203.828125 L 284.039062 203.828125 C 284.511719 203.835938 284.980469 203.796875 285.445312 203.710938 C 285.914062 203.625 286.367188 203.496094 286.804688 203.324219 C 287.246094 203.152344 287.664062 202.9375 288.066406 202.683594 C 288.464844 202.425781 288.832031 202.136719 289.175781 201.808594 C 289.519531 201.480469 289.824219 201.125 290.097656 200.738281 C 290.371094 200.351562 290.605469 199.941406 290.796875 199.511719 C 290.988281 199.078125 291.140625 198.632812 291.246094 198.167969 C 291.351562 197.707031 291.414062 197.242188 291.429688 196.769531 L 291.429688 178.996094 C 289.53125 178.148438 287.855469 176.980469 286.40625 175.488281 C 286.015625 175.09375 285.644531 174.683594 285.292969 174.25 C 284.945312 173.820312 284.613281 173.371094 284.308594 172.910156 C 284 172.445312 283.714844 171.96875 283.457031 171.480469 C 283.195312 170.988281 282.957031 170.484375 282.746094 169.972656 C 282.535156 169.457031 282.351562 168.933594 282.1875 168.402344 C 282.027344 167.871094 281.894531 167.332031 281.785156 166.785156 C 281.679688 166.242188 281.597656 165.691406 281.542969 165.140625 C 281.488281 164.585938 281.460938 164.03125 281.460938 163.476562 C 281.460938 162.917969 281.488281 162.363281 281.542969 161.8125 C 281.597656 161.257812 281.679688 160.710938 281.785156 160.164062 C 281.894531 159.617188 282.027344 159.082031 282.1875 158.546875 C 282.351562 158.015625 282.535156 157.492188 282.746094 156.980469 C 282.957031 156.464844 283.195312 155.960938 283.457031 155.472656 C 283.714844 154.980469 284 154.503906 284.308594 154.039062 C 284.613281 153.578125 284.945312 153.132812 285.292969 152.699219 C 285.644531 152.269531 286.015625 151.855469 286.40625 151.460938 L 286.882812 150.988281 L 288.207031 149.804688 C 287.558594 149.304688 286.945312 148.765625 286.359375 148.191406 C 285.96875 147.796875 285.597656 147.386719 285.246094 146.957031 C 284.898438 146.527344 284.570312 146.082031 284.261719 145.617188 C 283.953125 145.15625 283.671875 144.679688 283.410156 144.191406 C 283.148438 143.699219 282.914062 143.199219 282.703125 142.6875 C 282.492188 142.171875 282.304688 141.652344 282.144531 141.121094 C 281.984375 140.589844 281.851562 140.050781 281.742188 139.507812 C 281.636719 138.960938 281.554688 138.414062 281.5 137.863281 C 281.445312 137.308594 281.417969 136.757812 281.417969 136.203125 C 281.417969 135.648438 281.445312 135.09375 281.5 134.539062 C 281.554688 133.988281 281.636719 133.441406 281.742188 132.894531 C 281.851562 132.351562 281.984375 131.8125 282.144531 131.28125 C 282.304688 130.753906 282.492188 130.230469 282.703125 129.71875 C 282.914062 129.203125 283.148438 128.703125 283.410156 128.210938 C 283.671875 127.722656 283.953125 127.246094 284.261719 126.785156 C 284.570312 126.324219 284.898438 125.875 285.246094 125.445312 C 285.597656 125.015625 285.96875 124.605469 286.359375 124.210938 L 287.164062 123.359375 L 288.066406 122.503906 C 287.445312 122.023438 286.863281 121.5 286.3125 120.941406 C 285.921875 120.546875 285.550781 120.136719 285.199219 119.707031 C 284.851562 119.277344 284.519531 118.832031 284.214844 118.367188 C 283.90625 117.90625 283.625 117.429688 283.363281 116.941406 C 283.101562 116.449219 282.867188 115.949219 282.65625 115.4375 C 282.445312 114.921875 282.257812 114.402344 282.097656 113.871094 C 281.9375 113.339844 281.804688 112.800781 281.695312 112.257812 C 281.589844 111.710938 281.507812 111.164062 281.453125 110.613281 C 281.398438 110.058594 281.371094 109.507812 281.371094 108.953125 C 281.371094 108.394531 281.398438 107.84375 281.453125 107.289062 C 281.507812 106.738281 281.589844 106.191406 281.695312 105.644531 C 281.804688 105.101562 281.9375 104.5625 282.097656 104.03125 C 282.257812 103.5 282.445312 102.980469 282.65625 102.46875 C 282.867188 101.953125 283.101562 101.453125 283.363281 100.960938 C 283.625 100.472656 283.90625 99.996094 284.214844 99.535156 C 284.519531 99.074219 284.851562 98.625 285.199219 98.195312 C 285.550781 97.765625 285.921875 97.355469 286.3125 96.960938 L 287.96875 95.253906 C 288.996094 94.179688 290.148438 93.261719 291.429688 92.507812 L 291.429688 29.570312 C 291.429688 29.089844 291.382812 28.617188 291.289062 28.148438 C 291.195312 27.675781 291.054688 27.21875 290.875 26.777344 C 290.691406 26.335938 290.464844 25.914062 290.199219 25.515625 C 289.933594 25.117188 289.628906 24.75 289.292969 24.410156 C 288.953125 24.070312 288.585938 23.769531 288.1875 23.503906 C 287.789062 23.234375 287.367188 23.011719 286.925781 22.828125 C 286.484375 22.644531 286.027344 22.503906 285.558594 22.414062 C 285.085938 22.320312 284.613281 22.273438 284.132812 22.273438 L 204.507812 22.273438 C 204.027344 22.273438 203.554688 22.320312 203.085938 22.414062 C 202.613281 22.503906 202.160156 22.644531 201.714844 22.828125 C 201.273438 23.011719 200.851562 23.234375 200.453125 23.503906 C 200.054688 23.769531 199.6875 24.070312 199.347656 24.410156 C 199.011719 24.75 198.707031 25.117188 198.441406 25.515625 C 198.175781 25.914062 197.949219 26.335938 197.769531 26.777344 C 197.585938 27.21875 197.445312 27.675781 197.351562 28.148438 C 197.257812 28.617188 197.210938 29.089844 197.210938 29.570312 L 197.210938 185.15625 Z M 288.777344 99.285156 Z M 288.777344 99.285156 " fill-opacity="1" fill-rule="nonzero"/><path fill="#ffffff" d="M 294.886719 83.453125 C 294.476562 83.449219 294.082031 83.371094 293.703125 83.21875 C 293.355469 83.101562 293.035156 82.9375 292.738281 82.71875 C 292.445312 82.5 292.191406 82.242188 291.976562 81.945312 C 291.765625 81.648438 291.601562 81.324219 291.492188 80.972656 C 291.382812 80.625 291.328125 80.265625 291.332031 79.898438 L 291.332031 51.464844 C 291.332031 51.148438 291.351562 50.835938 291.386719 50.519531 C 291.421875 50.207031 291.480469 49.898438 291.554688 49.589844 C 291.628906 49.285156 291.722656 48.984375 291.835938 48.6875 C 291.945312 48.390625 292.074219 48.105469 292.222656 47.824219 C 292.371094 47.546875 292.535156 47.277344 292.714844 47.019531 C 292.894531 46.757812 293.089844 46.511719 293.300781 46.277344 C 293.507812 46.039062 293.734375 45.820312 293.972656 45.609375 C 294.207031 45.402344 294.457031 45.210938 294.71875 45.03125 C 294.980469 44.855469 295.25 44.695312 295.53125 44.550781 C 295.8125 44.40625 296.101562 44.28125 296.398438 44.171875 C 296.695312 44.0625 296.996094 43.972656 297.304688 43.902344 C 297.609375 43.828125 297.921875 43.777344 298.234375 43.742188 C 298.550781 43.710938 298.863281 43.695312 299.179688 43.703125 C 299.496094 43.707031 299.808594 43.730469 300.121094 43.773438 C 300.433594 43.816406 300.742188 43.878906 301.046875 43.960938 C 301.351562 44.042969 301.652344 44.144531 301.945312 44.261719 L 304.265625 45.164062 C 304.898438 45.410156 305.507812 45.703125 306.097656 46.042969 C 306.683594 46.378906 307.246094 46.761719 307.777344 47.183594 C 308.308594 47.605469 308.804688 48.066406 309.265625 48.566406 C 309.726562 49.0625 310.152344 49.59375 310.53125 50.152344 C 310.914062 50.714844 311.253906 51.300781 311.546875 51.914062 C 311.84375 52.527344 312.089844 53.15625 312.289062 53.808594 C 312.488281 54.457031 312.636719 55.117188 312.738281 55.789062 C 312.839844 56.460938 312.886719 57.136719 312.886719 57.816406 L 312.886719 58.335938 C 312.882812 59.878906 312.625 61.378906 312.113281 62.832031 C 311.601562 64.289062 310.867188 65.617188 309.902344 66.820312 L 297.632812 82.175781 C 297.296875 82.585938 296.886719 82.902344 296.40625 83.128906 C 295.921875 83.351562 295.417969 83.460938 294.886719 83.453125 Z M 299.054688 50.753906 C 298.945312 50.707031 298.832031 50.707031 298.722656 50.753906 C 298.507812 50.863281 298.414062 51.035156 298.4375 51.277344 L 298.4375 69.757812 L 304.359375 62.316406 C 305.320312 61.148438 305.792969 59.804688 305.78125 58.289062 L 305.78125 57.769531 C 305.78125 57.121094 305.683594 56.488281 305.496094 55.867188 C 305.304688 55.25 305.027344 54.671875 304.664062 54.136719 C 304.300781 53.597656 303.867188 53.128906 303.363281 52.722656 C 302.859375 52.316406 302.308594 51.992188 301.707031 51.75 L 299.339844 50.800781 Z M 307.15625 64.546875 Z M 307.15625 64.546875 " fill-opacity="1" fill-rule="nonzero"/><path fill="#ffffff" d="M 299.671875 125.679688 L 296.496094 125.679688 C 295.617188 125.542969 294.75 125.351562 293.890625 125.113281 C 290.96875 124.347656 288.441406 122.894531 286.3125 120.75 C 285.921875 120.359375 285.546875 119.945312 285.195312 119.515625 C 284.84375 119.085938 284.511719 118.636719 284.203125 118.175781 C 283.894531 117.710938 283.609375 117.234375 283.347656 116.746094 C 283.085938 116.253906 282.851562 115.753906 282.636719 115.238281 C 282.425781 114.722656 282.238281 114.199219 282.078125 113.667969 C 281.917969 113.136719 281.78125 112.597656 281.675781 112.050781 C 281.566406 111.507812 281.484375 110.957031 281.429688 110.402344 C 281.375 109.847656 281.347656 109.292969 281.347656 108.738281 C 281.347656 108.183594 281.375 107.625 281.429688 107.074219 C 281.484375 106.519531 281.566406 105.96875 281.675781 105.425781 C 281.78125 104.878906 281.917969 104.339844 282.078125 103.808594 C 282.238281 103.273438 282.425781 102.753906 282.636719 102.238281 C 282.851562 101.722656 283.085938 101.222656 283.347656 100.730469 C 283.609375 100.238281 283.894531 99.761719 284.203125 99.300781 C 284.511719 98.835938 284.84375 98.390625 285.195312 97.960938 C 285.546875 97.53125 285.921875 97.117188 286.3125 96.722656 L 287.921875 95.066406 C 289.59375 93.398438 291.554688 92.199219 293.796875 91.464844 C 295.074219 91.042969 296.386719 90.808594 297.730469 90.753906 C 299.078125 90.699219 300.402344 90.828125 301.710938 91.140625 C 303.023438 91.453125 304.261719 91.941406 305.4375 92.601562 C 306.609375 93.257812 307.671875 94.066406 308.625 95.019531 L 311.984375 98.382812 C 312.664062 99.0625 313.265625 99.800781 313.796875 100.597656 C 314.328125 101.398438 314.777344 102.238281 315.140625 103.125 C 315.507812 104.011719 315.785156 104.925781 315.96875 105.867188 C 316.15625 106.804688 316.25 107.753906 316.25 108.714844 C 316.25 109.671875 316.15625 110.621094 315.96875 111.5625 C 315.785156 112.503906 315.507812 113.417969 315.140625 114.304688 C 314.777344 115.1875 314.328125 116.03125 313.796875 116.828125 C 313.265625 117.628906 312.664062 118.367188 311.984375 119.046875 L 310.375 120.941406 C 308.988281 122.289062 307.414062 123.367188 305.660156 124.179688 C 303.90625 124.992188 302.066406 125.492188 300.144531 125.679688 Z M 298.34375 118.476562 L 299.671875 118.476562 C 301.84375 118.136719 303.707031 117.191406 305.261719 115.632812 L 306.964844 113.925781 C 307.671875 113.226562 308.210938 112.414062 308.589844 111.492188 C 308.96875 110.574219 309.152344 109.613281 309.144531 108.621094 C 309.148438 107.625 308.964844 106.667969 308.585938 105.746094 C 308.207031 104.828125 307.667969 104.015625 306.964844 103.3125 L 303.601562 99.945312 C 303.105469 99.5 302.5625 99.121094 301.964844 98.820312 C 301.371094 98.519531 300.746094 98.300781 300.089844 98.167969 C 299.4375 98.035156 298.777344 97.988281 298.109375 98.035156 C 297.445312 98.078125 296.796875 98.210938 296.164062 98.429688 C 295.015625 98.773438 294.019531 99.371094 293.179688 100.230469 L 291.429688 101.984375 C 290.8125 102.59375 290.28125 103.273438 289.84375 104.023438 C 289.40625 104.769531 289.070312 105.5625 288.84375 106.398438 C 288.613281 107.238281 288.496094 108.089844 288.492188 108.957031 C 288.488281 109.824219 288.597656 110.679688 288.816406 111.519531 C 289.039062 112.355469 289.363281 113.152344 289.796875 113.90625 C 290.226562 114.660156 290.75 115.34375 291.359375 115.957031 C 291.972656 116.574219 292.652344 117.097656 293.402344 117.535156 C 294.15625 117.96875 294.949219 118.300781 295.785156 118.523438 L 297.066406 118.808594 Z M 298.34375 118.476562 " fill-opacity="1" fill-rule="nonzero"/><path fill="#ffffff" d="M 298.296875 153.214844 C 297.464844 153.207031 296.636719 153.140625 295.8125 153.015625 C 294.992188 152.886719 294.183594 152.699219 293.386719 152.453125 C 292.59375 152.207031 291.820312 151.902344 291.070312 151.542969 C 290.320312 151.183594 289.597656 150.769531 288.910156 150.304688 C 288.21875 149.835938 287.566406 149.324219 286.953125 148.761719 C 286.335938 148.199219 285.769531 147.59375 285.242188 146.949219 C 284.714844 146.304688 284.238281 145.625 283.8125 144.910156 C 283.386719 144.191406 283.015625 143.449219 282.699219 142.679688 C 282.382812 141.910156 282.125 141.121094 281.921875 140.3125 C 281.722656 139.503906 281.582031 138.6875 281.5 137.855469 C 281.417969 137.027344 281.398438 136.199219 281.4375 135.367188 C 281.480469 134.535156 281.582031 133.710938 281.742188 132.894531 C 281.90625 132.074219 282.125 131.273438 282.40625 130.492188 C 282.683594 129.707031 283.019531 128.945312 283.410156 128.210938 C 283.800781 127.476562 284.246094 126.773438 284.738281 126.101562 C 285.234375 125.433594 285.773438 124.800781 286.359375 124.210938 L 287.164062 123.359375 C 289.0625 121.4375 291.304688 120.09375 293.890625 119.332031 C 294.820312 119.039062 295.765625 118.851562 296.734375 118.761719 L 300.050781 118.761719 C 301.835938 118.933594 303.546875 119.40625 305.171875 120.167969 C 306.796875 120.933594 308.25 121.949219 309.523438 123.214844 L 311.371094 125.066406 C 312.097656 125.792969 312.746094 126.585938 313.320312 127.441406 C 313.890625 128.296875 314.375 129.203125 314.765625 130.152344 C 315.160156 131.105469 315.457031 132.085938 315.660156 133.09375 C 315.859375 134.105469 315.960938 135.125 315.960938 136.152344 C 315.960938 137.183594 315.859375 138.203125 315.660156 139.214844 C 315.457031 140.222656 315.160156 141.203125 314.765625 142.15625 C 314.375 143.105469 313.890625 144.011719 313.320312 144.867188 C 312.746094 145.722656 312.097656 146.515625 311.371094 147.242188 L 310.46875 148.144531 C 308.863281 149.773438 307.007812 151.027344 304.894531 151.910156 C 302.785156 152.789062 300.585938 153.222656 298.296875 153.214844 Z M 296.828125 125.679688 L 295.976562 125.917969 C 294.5625 126.335938 293.332031 127.0625 292.28125 128.097656 L 291.429688 128.996094 C 290.488281 129.921875 289.761719 130.992188 289.253906 132.207031 C 288.742188 133.425781 288.488281 134.691406 288.492188 136.011719 C 288.449219 137.359375 288.683594 138.65625 289.195312 139.902344 C 289.707031 141.148438 290.453125 142.238281 291.429688 143.167969 C 292.667969 144.457031 294.152344 145.324219 295.882812 145.773438 C 296.714844 145.992188 297.5625 146.101562 298.425781 146.09375 C 299.289062 146.089844 300.136719 145.972656 300.96875 145.746094 C 301.800781 145.515625 302.585938 145.183594 303.332031 144.746094 C 304.074219 144.308594 304.75 143.78125 305.355469 143.167969 L 306.253906 142.269531 C 306.648438 141.867188 307.003906 141.433594 307.3125 140.964844 C 307.625 140.496094 307.886719 140 308.101562 139.480469 C 308.3125 138.960938 308.476562 138.425781 308.582031 137.871094 C 308.691406 137.320312 308.746094 136.765625 308.746094 136.203125 C 308.746094 135.640625 308.691406 135.082031 308.582031 134.53125 C 308.476562 133.976562 308.3125 133.441406 308.101562 132.921875 C 307.886719 132.402344 307.625 131.90625 307.3125 131.4375 C 307.003906 130.96875 306.648438 130.535156 306.253906 130.136719 L 304.40625 128.285156 C 303.085938 126.976562 301.507812 126.167969 299.671875 125.871094 Z M 296.828125 125.679688 " fill-opacity="1" fill-rule="nonzero"/><path fill="#ffffff" d="M 298.296875 180.511719 C 296.835938 180.511719 295.398438 180.320312 293.984375 179.945312 C 291.035156 179.136719 288.476562 177.652344 286.3125 175.488281 C 285.921875 175.09375 285.550781 174.683594 285.199219 174.25 C 284.847656 173.820312 284.519531 173.371094 284.210938 172.910156 C 283.90625 172.445312 283.621094 171.96875 283.359375 171.480469 C 283.101562 170.988281 282.863281 170.484375 282.652344 169.972656 C 282.441406 169.457031 282.253906 168.933594 282.09375 168.402344 C 281.933594 167.871094 281.800781 167.332031 281.691406 166.785156 C 281.585938 166.242188 281.503906 165.691406 281.449219 165.140625 C 281.394531 164.585938 281.367188 164.03125 281.367188 163.476562 C 281.367188 162.917969 281.394531 162.363281 281.449219 161.8125 C 281.503906 161.257812 281.585938 160.710938 281.691406 160.164062 C 281.800781 159.617188 281.933594 159.082031 282.09375 158.546875 C 282.253906 158.015625 282.441406 157.492188 282.652344 156.980469 C 282.863281 156.464844 283.101562 155.960938 283.359375 155.472656 C 283.621094 154.980469 283.90625 154.503906 284.210938 154.039062 C 284.519531 153.578125 284.847656 153.132812 285.199219 152.699219 C 285.550781 152.269531 285.921875 151.855469 286.3125 151.460938 L 286.785156 150.988281 C 288.789062 148.972656 291.15625 147.582031 293.890625 146.816406 C 295.285156 146.433594 296.703125 146.238281 298.148438 146.230469 C 299.589844 146.222656 301.011719 146.402344 302.410156 146.765625 C 303.804688 147.132812 305.132812 147.671875 306.386719 148.390625 C 307.640625 149.105469 308.78125 149.972656 309.808594 150.988281 L 310.753906 151.886719 C 311.332031 152.460938 311.867188 153.070312 312.355469 153.722656 C 312.839844 154.375 313.277344 155.058594 313.660156 155.777344 C 314.046875 156.492188 314.375 157.234375 314.648438 158.003906 C 314.917969 158.769531 315.132812 159.550781 315.289062 160.351562 C 315.445312 161.148438 315.539062 161.957031 315.574219 162.769531 C 315.609375 163.582031 315.582031 164.390625 315.496094 165.203125 C 315.40625 166.011719 315.261719 166.808594 315.054688 167.59375 C 314.847656 168.382812 314.582031 169.148438 314.261719 169.898438 C 314.160156 170.121094 314.035156 170.324219 313.882812 170.511719 L 310.707031 175.015625 C 310.605469 175.195312 310.480469 175.351562 310.328125 175.488281 C 308.734375 177.089844 306.894531 178.328125 304.8125 179.195312 C 302.726562 180.066406 300.554688 180.503906 298.296875 180.511719 Z M 298.296875 153.308594 C 297.457031 153.320312 296.636719 153.445312 295.832031 153.6875 C 294.289062 154.089844 292.964844 154.863281 291.855469 156.011719 L 291.382812 156.484375 C 290.90625 156.945312 290.480469 157.449219 290.105469 158 C 289.730469 158.546875 289.414062 159.125 289.15625 159.734375 C 288.898438 160.34375 288.703125 160.976562 288.574219 161.625 C 288.441406 162.273438 288.375 162.929688 288.375 163.59375 C 288.375 164.257812 288.441406 164.914062 288.574219 165.5625 C 288.703125 166.210938 288.898438 166.84375 289.15625 167.453125 C 289.414062 168.0625 289.730469 168.644531 290.105469 169.191406 C 290.480469 169.738281 290.90625 170.242188 291.382812 170.703125 C 292.621094 171.992188 294.105469 172.859375 295.832031 173.308594 C 296.660156 173.535156 297.5 173.652344 298.355469 173.664062 C 299.207031 173.675781 300.050781 173.574219 300.882812 173.367188 C 301.710938 173.160156 302.5 172.851562 303.25 172.4375 C 304 172.027344 304.6875 171.527344 305.308594 170.941406 L 308.101562 167.007812 C 308.40625 166.140625 308.578125 165.246094 308.625 164.332031 C 308.667969 163.414062 308.578125 162.507812 308.359375 161.617188 C 308.144531 160.726562 307.800781 159.882812 307.339844 159.089844 C 306.875 158.296875 306.308594 157.585938 305.640625 156.960938 L 304.691406 156.105469 C 303.84375 155.25 302.867188 154.582031 301.761719 154.097656 C 300.65625 153.613281 299.5 153.351562 298.296875 153.308594 Z M 311.039062 168.332031 Z M 311.039062 168.332031 " fill-opacity="1" fill-rule="nonzero"/><path fill="#ffffff" d="M 307.863281 176.53125 C 307.015625 176.523438 306.257812 176.257812 305.589844 175.726562 C 305.253906 175.441406 304.980469 175.101562 304.769531 174.714844 C 304.558594 174.328125 304.425781 173.914062 304.367188 173.476562 C 304.3125 173.039062 304.335938 172.605469 304.441406 172.175781 C 304.546875 171.746094 304.722656 171.347656 304.976562 170.988281 L 308.148438 166.484375 C 308.40625 166.140625 308.714844 165.851562 309.078125 165.621094 C 309.4375 165.390625 309.828125 165.226562 310.25 165.136719 C 310.667969 165.046875 311.089844 165.035156 311.515625 165.097656 C 311.941406 165.160156 312.339844 165.296875 312.714844 165.503906 C 313.089844 165.710938 313.417969 165.980469 313.695312 166.304688 C 313.976562 166.632812 314.1875 167 314.335938 167.402344 C 314.480469 167.804688 314.550781 168.222656 314.546875 168.652344 C 314.542969 169.082031 314.460938 169.496094 314.308594 169.898438 C 313.496094 171.847656 312.34375 173.570312 310.847656 175.0625 L 310.375 175.535156 C 309.675781 176.21875 308.839844 176.550781 307.863281 176.53125 Z M 307.863281 176.53125 " fill-opacity="1" fill-rule="nonzero"/><path fill="#ffffff" d="M 272.859375 225.867188 C 272.089844 225.886719 271.394531 225.667969 270.777344 225.203125 C 270.414062 224.9375 270.117188 224.613281 269.882812 224.234375 C 269.644531 223.855469 269.488281 223.445312 269.40625 223.003906 C 269.328125 222.5625 269.332031 222.121094 269.421875 221.683594 C 269.511719 221.246094 269.679688 220.839844 269.921875 220.464844 L 280.390625 205.726562 C 280.664062 205.375 280.992188 205.082031 281.371094 204.855469 C 281.753906 204.625 282.164062 204.472656 282.601562 204.398438 C 283.042969 204.324219 283.480469 204.332031 283.914062 204.421875 C 284.351562 204.511719 284.753906 204.675781 285.128906 204.917969 C 285.488281 205.183594 285.785156 205.507812 286.023438 205.886719 C 286.257812 206.269531 286.417969 206.679688 286.496094 207.121094 C 286.574219 207.558594 286.570312 208 286.480469 208.4375 C 286.390625 208.878906 286.226562 209.285156 285.980469 209.660156 L 275.558594 224.398438 C 275.238281 224.828125 274.84375 225.171875 274.371094 225.429688 C 273.898438 225.6875 273.394531 225.832031 272.859375 225.867188 Z M 272.859375 225.867188 " fill-opacity="1" fill-rule="nonzero"/><path fill="#ffffff" d="M 294.886719 194.824219 C 294.117188 194.832031 293.425781 194.609375 292.800781 194.160156 C 292.449219 193.886719 292.160156 193.5625 291.933594 193.179688 C 291.703125 192.796875 291.550781 192.386719 291.476562 191.949219 C 291.402344 191.511719 291.410156 191.074219 291.5 190.636719 C 291.589844 190.199219 291.753906 189.796875 291.996094 189.421875 L 304.929688 171.175781 C 305.195312 170.816406 305.515625 170.519531 305.898438 170.28125 C 306.277344 170.046875 306.6875 169.886719 307.128906 169.808594 C 307.566406 169.730469 308.007812 169.734375 308.445312 169.824219 C 308.882812 169.910156 309.289062 170.078125 309.664062 170.324219 C 310.019531 170.59375 310.316406 170.917969 310.546875 171.296875 C 310.78125 171.679688 310.9375 172.085938 311.015625 172.527344 C 311.09375 172.964844 311.089844 173.402344 311.003906 173.839844 C 310.917969 174.277344 310.757812 174.6875 310.519531 175.0625 L 297.585938 193.308594 C 297.269531 193.75 296.878906 194.101562 296.40625 194.367188 C 295.933594 194.632812 295.425781 194.785156 294.886719 194.824219 Z M 294.886719 194.824219 " fill-opacity="1" fill-rule="nonzero"/><path fill="#ffffff" d="M 209.953125 49.285156 C 209.484375 49.285156 209.03125 49.195312 208.59375 49.015625 C 208.160156 48.835938 207.777344 48.578125 207.441406 48.246094 C 207.109375 47.910156 206.851562 47.527344 206.671875 47.089844 C 206.492188 46.65625 206.402344 46.203125 206.402344 45.730469 L 206.402344 37.246094 C 206.402344 36.878906 206.4375 36.511719 206.511719 36.148438 C 206.582031 35.785156 206.691406 35.433594 206.832031 35.089844 C 206.972656 34.746094 207.144531 34.421875 207.351562 34.113281 C 207.558594 33.808594 207.792969 33.523438 208.054688 33.261719 C 208.316406 33 208.597656 32.765625 208.90625 32.558594 C 209.214844 32.351562 209.539062 32.179688 209.882812 32.039062 C 210.222656 31.894531 210.578125 31.789062 210.9375 31.714844 C 211.300781 31.644531 211.667969 31.609375 212.039062 31.609375 L 221.085938 31.609375 C 221.558594 31.609375 222.011719 31.699219 222.445312 31.878906 C 222.882812 32.058594 223.265625 32.316406 223.597656 32.648438 C 223.929688 32.984375 224.1875 33.367188 224.367188 33.800781 C 224.546875 34.238281 224.640625 34.691406 224.640625 35.164062 C 224.640625 35.632812 224.546875 36.085938 224.367188 36.523438 C 224.1875 36.957031 223.929688 37.34375 223.597656 37.675781 C 223.265625 38.007812 222.882812 38.265625 222.445312 38.445312 C 222.011719 38.625 221.558594 38.71875 221.085938 38.71875 L 213.507812 38.71875 L 213.507812 45.730469 C 213.507812 46.203125 213.417969 46.65625 213.238281 47.089844 C 213.054688 47.527344 212.800781 47.910156 212.464844 48.246094 C 212.132812 48.578125 211.75 48.835938 211.3125 49.015625 C 210.878906 49.195312 210.425781 49.285156 209.953125 49.285156 Z M 209.953125 49.285156 " fill-opacity="1" fill-rule="nonzero"/><path fill="#ffffff" d="M 221.085938 194.730469 L 212.039062 194.730469 C 211.667969 194.730469 211.300781 194.695312 210.9375 194.621094 C 210.578125 194.550781 210.222656 194.441406 209.882812 194.300781 C 209.539062 194.160156 209.214844 193.984375 208.90625 193.78125 C 208.597656 193.574219 208.316406 193.339844 208.054688 193.078125 C 207.792969 192.816406 207.558594 192.53125 207.351562 192.222656 C 207.144531 191.914062 206.972656 191.589844 206.832031 191.25 C 206.691406 190.90625 206.582031 190.554688 206.511719 190.191406 C 206.4375 189.828125 206.402344 189.460938 206.402344 189.089844 L 206.402344 180.558594 C 206.402344 180.089844 206.492188 179.636719 206.671875 179.199219 C 206.851562 178.765625 207.109375 178.378906 207.441406 178.046875 C 207.777344 177.714844 208.160156 177.457031 208.59375 177.277344 C 209.03125 177.097656 209.484375 177.003906 209.953125 177.003906 C 210.425781 177.003906 210.878906 177.097656 211.3125 177.277344 C 211.75 177.457031 212.132812 177.714844 212.464844 178.046875 C 212.800781 178.378906 213.054688 178.765625 213.238281 179.199219 C 213.417969 179.636719 213.507812 180.089844 213.507812 180.558594 L 213.507812 187.621094 L 221.085938 187.621094 C 221.558594 187.621094 222.011719 187.710938 222.445312 187.890625 C 222.882812 188.074219 223.265625 188.328125 223.597656 188.664062 C 223.929688 188.996094 224.1875 189.378906 224.367188 189.816406 C 224.546875 190.25 224.640625 190.703125 224.640625 191.175781 C 224.640625 191.648438 224.546875 192.101562 224.367188 192.535156 C 224.1875 192.972656 223.929688 193.355469 223.597656 193.6875 C 223.265625 194.023438 222.882812 194.277344 222.445312 194.460938 C 222.011719 194.640625 221.558594 194.730469 221.085938 194.730469 Z M 221.085938 194.730469 " fill-opacity="1" fill-rule="nonzero"/><path fill="#ffffff" d="M 278.308594 49.285156 C 277.835938 49.292969 277.378906 49.207031 276.941406 49.027344 C 276.503906 48.847656 276.117188 48.59375 275.78125 48.257812 C 275.445312 47.921875 275.191406 47.539062 275.011719 47.097656 C 274.835938 46.660156 274.75 46.203125 274.753906 45.730469 L 274.753906 38.71875 L 267.128906 38.71875 C 266.65625 38.71875 266.203125 38.625 265.769531 38.445312 C 265.332031 38.265625 264.949219 38.007812 264.617188 37.675781 C 264.28125 37.34375 264.027344 36.957031 263.847656 36.523438 C 263.664062 36.085938 263.574219 35.632812 263.574219 35.164062 C 263.574219 34.691406 263.664062 34.238281 263.847656 33.800781 C 264.027344 33.367188 264.28125 32.984375 264.617188 32.648438 C 264.949219 32.316406 265.332031 32.058594 265.769531 31.878906 C 266.203125 31.699219 266.65625 31.609375 267.128906 31.609375 L 276.175781 31.609375 C 276.550781 31.597656 276.925781 31.625 277.296875 31.691406 C 277.664062 31.757812 278.027344 31.859375 278.375 31.996094 C 278.726562 32.132812 279.058594 32.304688 279.375 32.507812 C 279.691406 32.710938 279.984375 32.945312 280.253906 33.207031 C 280.523438 33.472656 280.761719 33.757812 280.976562 34.070312 C 281.1875 34.378906 281.367188 34.710938 281.511719 35.054688 C 281.660156 35.402344 281.769531 35.761719 281.84375 36.128906 C 281.917969 36.5 281.953125 36.871094 281.953125 37.246094 L 281.953125 45.730469 C 281.953125 46.210938 281.863281 46.671875 281.675781 47.113281 C 281.488281 47.554688 281.222656 47.945312 280.882812 48.277344 C 280.539062 48.613281 280.140625 48.867188 279.695312 49.042969 C 279.25 49.21875 278.785156 49.296875 278.308594 49.285156 Z M 276.175781 38.71875 Z M 276.175781 38.71875 " fill-opacity="1" fill-rule="nonzero"/><path fill="#ffffff" d="M 276.175781 194.730469 L 267.128906 194.730469 C 266.65625 194.730469 266.203125 194.640625 265.769531 194.460938 C 265.332031 194.277344 264.949219 194.023438 264.617188 193.6875 C 264.28125 193.355469 264.027344 192.972656 263.847656 192.535156 C 263.664062 192.101562 263.574219 191.648438 263.574219 191.175781 C 263.574219 190.703125 263.664062 190.25 263.847656 189.816406 C 264.027344 189.378906 264.28125 188.996094 264.617188 188.664062 C 264.949219 188.328125 265.332031 188.074219 265.769531 187.890625 C 266.203125 187.710938 266.65625 187.621094 267.128906 187.621094 L 274.753906 187.621094 L 274.753906 180.558594 C 274.753906 180.089844 274.84375 179.636719 275.023438 179.199219 C 275.207031 178.765625 275.460938 178.378906 275.796875 178.046875 C 276.128906 177.714844 276.511719 177.457031 276.949219 177.277344 C 277.382812 177.097656 277.835938 177.003906 278.308594 177.003906 C 278.777344 177.003906 279.230469 177.097656 279.667969 177.277344 C 280.101562 177.457031 280.484375 177.714844 280.820312 178.046875 C 281.152344 178.378906 281.410156 178.765625 281.589844 179.199219 C 281.769531 179.636719 281.859375 180.089844 281.859375 180.558594 L 281.859375 189.089844 C 281.859375 189.460938 281.824219 189.832031 281.75 190.195312 C 281.675781 190.5625 281.570312 190.917969 281.425781 191.257812 C 281.285156 191.601562 281.109375 191.929688 280.898438 192.238281 C 280.691406 192.546875 280.457031 192.832031 280.191406 193.09375 C 279.929688 193.355469 279.640625 193.589844 279.332031 193.796875 C 279.019531 194 278.691406 194.175781 278.347656 194.316406 C 278.003906 194.453125 277.648438 194.558594 277.28125 194.628906 C 276.917969 194.699219 276.546875 194.734375 276.175781 194.730469 Z M 276.175781 194.730469 " fill-opacity="1" fill-rule="nonzero"/><path fill="#ffffff" d="M 244.058594 199.328125 C 243.175781 199.328125 242.300781 199.242188 241.433594 199.070312 C 240.570312 198.894531 239.726562 198.640625 238.910156 198.300781 C 238.097656 197.964844 237.320312 197.550781 236.585938 197.058594 C 235.851562 196.566406 235.171875 196.011719 234.546875 195.386719 C 233.921875 194.761719 233.363281 194.082031 232.875 193.34375 C 232.382812 192.609375 231.96875 191.835938 231.632812 191.019531 C 231.292969 190.203125 231.039062 189.359375 230.867188 188.492188 C 230.695312 187.625 230.605469 186.75 230.605469 185.867188 C 230.605469 184.984375 230.695312 184.109375 230.867188 183.242188 C 231.039062 182.375 231.292969 181.535156 231.632812 180.71875 C 231.96875 179.902344 232.382812 179.125 232.875 178.390625 C 233.363281 177.65625 233.921875 176.976562 234.546875 176.351562 C 235.171875 175.726562 235.851562 175.167969 236.585938 174.675781 C 237.320312 174.1875 238.097656 173.769531 238.910156 173.433594 C 239.726562 173.09375 240.570312 172.839844 241.433594 172.667969 C 242.300781 172.496094 243.175781 172.410156 244.058594 172.410156 C 244.941406 172.410156 245.816406 172.496094 246.683594 172.667969 C 247.550781 172.839844 248.390625 173.09375 249.207031 173.433594 C 250.023438 173.769531 250.800781 174.1875 251.535156 174.675781 C 252.269531 175.167969 252.949219 175.726562 253.574219 176.351562 C 254.195312 176.976562 254.753906 177.65625 255.246094 178.390625 C 255.734375 179.125 256.152344 179.902344 256.488281 180.71875 C 256.828125 181.535156 257.082031 182.375 257.253906 183.242188 C 257.425781 184.109375 257.511719 184.984375 257.511719 185.867188 C 257.511719 186.75 257.425781 187.625 257.253906 188.492188 C 257.082031 189.359375 256.828125 190.203125 256.488281 191.019531 C 256.152344 191.835938 255.734375 192.609375 255.246094 193.34375 C 254.753906 194.082031 254.195312 194.761719 253.574219 195.386719 C 252.949219 196.011719 252.269531 196.566406 251.535156 197.058594 C 250.800781 197.550781 250.023438 197.964844 249.207031 198.300781 C 248.390625 198.640625 247.550781 198.894531 246.683594 199.070312 C 245.816406 199.242188 244.941406 199.328125 244.058594 199.328125 Z M 244.058594 179.515625 C 243.644531 179.515625 243.230469 179.558594 242.820312 179.640625 C 242.414062 179.722656 242.015625 179.839844 241.632812 180 C 241.246094 180.160156 240.878906 180.355469 240.535156 180.585938 C 240.1875 180.820312 239.867188 181.082031 239.570312 181.378906 C 239.277344 181.671875 239.015625 181.992188 238.78125 182.339844 C 238.550781 182.6875 238.355469 183.050781 238.195312 183.4375 C 238.035156 183.824219 237.914062 184.21875 237.835938 184.628906 C 237.753906 185.039062 237.710938 185.449219 237.710938 185.867188 C 237.710938 186.285156 237.753906 186.699219 237.835938 187.105469 C 237.914062 187.515625 238.035156 187.914062 238.195312 188.296875 C 238.355469 188.683594 238.550781 189.050781 238.78125 189.394531 C 239.015625 189.742188 239.277344 190.0625 239.570312 190.359375 C 239.867188 190.652344 240.1875 190.917969 240.535156 191.148438 C 240.878906 191.378906 241.246094 191.574219 241.632812 191.734375 C 242.015625 191.894531 242.414062 192.015625 242.820312 192.097656 C 243.230469 192.175781 243.644531 192.21875 244.058594 192.21875 C 244.476562 192.21875 244.890625 192.175781 245.296875 192.097656 C 245.707031 192.015625 246.105469 191.894531 246.488281 191.734375 C 246.875 191.574219 247.238281 191.378906 247.585938 191.148438 C 247.933594 190.917969 248.253906 190.652344 248.546875 190.359375 C 248.84375 190.0625 249.105469 189.742188 249.335938 189.394531 C 249.570312 189.050781 249.765625 188.683594 249.925781 188.296875 C 250.082031 187.914062 250.203125 187.515625 250.285156 187.105469 C 250.367188 186.699219 250.40625 186.285156 250.40625 185.867188 C 250.402344 185.453125 250.359375 185.039062 250.277344 184.632812 C 250.195312 184.222656 250.070312 183.828125 249.910156 183.445312 C 249.75 183.0625 249.554688 182.695312 249.324219 182.351562 C 249.089844 182.003906 248.828125 181.683594 248.535156 181.390625 C 248.242188 181.097656 247.921875 180.832031 247.574219 180.601562 C 247.230469 180.371094 246.867188 180.175781 246.480469 180.011719 C 246.097656 179.851562 245.703125 179.730469 245.296875 179.648438 C 244.886719 179.5625 244.476562 179.519531 244.058594 179.515625 Z M 244.058594 179.515625 " fill-opacity="1" fill-rule="nonzero"/></svg>