<svg xmlns="http://www.w3.org/2000/svg" xmlns:xlink="http://www.w3.org/1999/xlink" width="512" zoomAndPan="magnify" viewBox="0 0 384 383.999986" height="512" preserveAspectRatio="xMidYMid meet" version="1.0"><defs><clipPath id="48c62cd619"><path d="M 62.558594 231 L 321.308594 231 L 321.308594 345 L 62.558594 345 Z M 62.558594 231 " clip-rule="nonzero"/></clipPath></defs><path fill="#ffffff" d="M 191.941406 268.074219 C 191.949219 268.074219 191.960938 268.074219 191.960938 268.074219 C 200.894531 268.074219 210.03125 261.886719 210.238281 250.058594 L 210.238281 113.800781 L 234.644531 138.199219 C 243.152344 146.441406 254.003906 144.324219 260.339844 138.007812 C 266.664062 131.6875 268.765625 120.839844 260.472656 112.277344 L 204.886719 56.714844 C 203.429688 55.246094 201.652344 54.050781 199.429688 53.050781 C 192.511719 49.988281 184.3125 51.453125 178.996094 56.699219 L 123.507812 112.167969 C 118.136719 117.164062 116.582031 125 119.539062 132.132812 C 122.433594 139.105469 128.804688 143.523438 135.746094 143.523438 C 140.617188 143.527344 145.679688 141.746094 149.273438 138.148438 L 173.625 113.800781 L 173.625 250.050781 C 173.804688 261.871094 182.980469 268.0625 191.941406 268.074219 Z M 191.941406 268.074219 " fill-opacity="1" fill-rule="nonzero"/><g clip-path="url(#48c62cd619)"><path fill="#ffffff" d="M 62.425781 249.980469 L 62.425781 270.226562 C 62.425781 310.960938 95.578125 344.105469 136.328125 344.105469 L 247.535156 344.105469 C 288.285156 344.105469 321.4375 310.960938 321.4375 270.226562 L 321.4375 249.980469 C 321.4375 239.890625 313.226562 231.683594 303.140625 231.683594 C 293.046875 231.683594 284.835938 239.890625 284.835938 249.980469 L 284.835938 270.226562 C 284.835938 290.785156 268.101562 307.511719 247.535156 307.511719 L 136.328125 307.511719 C 115.761719 307.511719 99.027344 290.785156 99.027344 270.226562 L 99.027344 249.980469 C 99.027344 239.890625 90.816406 231.683594 80.722656 231.683594 C 70.636719 231.683594 62.425781 239.890625 62.425781 249.980469 Z M 62.425781 249.980469 " fill-opacity="1" fill-rule="nonzero"/></g></svg>