<svg xmlns="http://www.w3.org/2000/svg" xmlns:xlink="http://www.w3.org/1999/xlink" width="512" zoomAndPan="magnify" viewBox="0 0 384 383.999986" height="512" preserveAspectRatio="xMidYMid meet" version="1.0"><defs><clipPath id="ba6a8fcdb9"><path d="M 30.960938 32.632812 L 210 32.632812 L 210 188 L 30.960938 188 Z M 30.960938 32.632812 " clip-rule="nonzero"/></clipPath><clipPath id="aa8d59c897"><path d="M 174 115 L 352.710938 115 L 352.710938 271 L 174 271 Z M 174 115 " clip-rule="nonzero"/></clipPath><clipPath id="51b18ceaa6"><path d="M 30.960938 196 L 210 196 L 210 351.382812 L 30.960938 351.382812 Z M 30.960938 196 " clip-rule="nonzero"/></clipPath></defs><g clip-path="url(#ba6a8fcdb9)"><path fill="#e9ab17" d="M 164.558594 32.628906 L 75.496094 32.628906 L 30.964844 109.84375 L 75.496094 187.0625 L 164.558594 187.0625 L 209.09375 109.84375 Z M 164.558594 32.628906 " fill-opacity="1" fill-rule="nonzero"/></g><g clip-path="url(#aa8d59c897)"><path fill="#e9ab17" d="M 308.175781 115.8125 L 219.113281 115.8125 L 174.578125 193.027344 L 219.113281 270.246094 L 308.175781 270.246094 L 352.707031 193.027344 Z M 308.175781 115.8125 " fill-opacity="1" fill-rule="nonzero"/></g><g clip-path="url(#51b18ceaa6)"><path fill="#e9ab17" d="M 164.558594 196.941406 L 75.496094 196.941406 L 30.964844 274.15625 L 75.496094 351.375 L 164.558594 351.375 L 209.09375 274.15625 Z M 164.558594 196.941406 " fill-opacity="1" fill-rule="nonzero"/></g></svg>